<?xml version="1.0" encoding="utf-8"?>
<!-- Generator: Adobe Illustrator 24.1.2, SVG Export Plug-In . SVG Version: 6.00 Build 0)  -->
<svg version="1.1" id="Camada_1" xmlns="http://www.w3.org/2000/svg" xmlns:xlink="http://www.w3.org/1999/xlink" x="0px" y="0px"
	 viewBox="0 0 527 678" style="enable-background:new 0 0 527 678;" xml:space="preserve">
<style type="text/css">
	.st0{fill:#91979A;}
</style>
<path class="st0" d="M8.4,340.8c0.3-8.3,0.1-17.1,1.5-25.9c0.3-1.6,0.2-3.3,0.3-4.9c0.2-2,0.5-4,0.8-5.9c0.5-3,1.1-6,1.5-9
	c0.8-6.1,2.5-11.9,3.8-17.9c1.4-6.8,3.6-13.4,5.8-19.9c2.6-7.6,5.9-15.1,9.1-22.5c6.4-14.7,14.5-28.4,23.6-41.5
	c7.3-10.4,15.3-20.2,24.1-29.4c9.2-9.7,19.2-18.6,29.9-26.8c9.8-7.5,20.1-14.3,30.9-20.3c10.5-5.8,21.2-11,32.5-15.1
	c2.5-0.9,5.1-1.9,7.6-2.7c5.6-1.9,11-1,16,1.8c6.8,3.7,10.5,9.7,11.1,17.3c0.6,7.5-3.2,15.9-11.3,20c-3.4,1.7-7.1,3.1-10.7,4.5
	c-15.1,6.1-29.3,13.7-42.6,23c-8.4,5.9-16.3,12.3-23.7,19.3c-9.1,8.6-17.5,18-25.1,28.1c-4.6,6.1-8.8,12.5-12.7,19.1
	c-4,6.8-7.6,13.7-10.9,20.9c-3.2,7.1-5.9,14.3-8.3,21.7c-1.2,3.8-2.3,7.6-3.3,11.5c-1.3,5.1-2.5,10.2-3.6,15.4
	c-0.7,3.1-1.2,6.2-1.5,9.4c-0.6,6.1-1.5,12.1-1.7,18.2c-0.3,8.7,0.1,17.4,0.2,26.1c0,1.6,0.3,3.3,0.5,4.9c0.2,2,0.4,4,0.7,5.9
	c0.6,4.1,1.1,8.1,1.9,12.2c0.6,3.5,1.3,6.9,2.1,10.3c0.4,1.9,1,3.8,1.5,5.8c2.2,8.4,5,16.6,8.2,24.7c3.6,9.1,7.9,17.8,12.8,26.2
	c8,13.9,17.3,26.8,28.3,38.5c10.7,11.5,22.4,21.7,35.3,30.7c5.8,4,11.8,7.7,17.9,11.1c8.2,4.5,16.7,8.6,25.5,11.9
	c2.6,1,5.2,2.1,7.8,3.2c5.2,2.3,8.9,6,11,11.3c2.4,5.9,2.3,11.6-0.6,17.3c-2.5,5-6.3,8.5-11.4,10.5c-3.4,1.3-6.9,1.9-10.7,1.2
	c-4-0.7-7.6-2.2-11.4-3.6c-8.9-3.3-17.5-7.3-25.9-11.8c-8.2-4.3-16.2-9-23.9-14.2c-7.2-4.9-14.2-10-20.8-15.6
	c-6.5-5.5-12.9-11.3-18.9-17.4c-6.9-7.1-13.4-14.5-19.5-22.3c-5.4-6.9-10.6-14-15.1-21.7c-3-5.2-6.2-10.3-9-15.5
	c-6.3-11.6-11.3-23.7-15.8-36.1c-1.6-4.5-2.8-9.2-4.3-13.8c-1.7-5.5-2.8-11.1-4-16.8c-0.6-3-1.4-6-1.8-9c-1.4-10-3-20-3.3-30.1
	C8.9,349.3,8.6,345.3,8.4,340.8z"/>
<path class="st0" d="M518.6,341.5c-0.2,6-0.3,12.2-0.8,18.4c-0.4,5.5-1.3,11-2,16.4c-0.5,3.7-1.1,7.4-1.7,11.1
	c-0.4,2.5-1,5.1-1.6,7.6c-1.3,5.2-2.9,10.4-4.2,15.6c-1.8,7.3-4.4,14.3-7.1,21.3c-2.8,7.2-5.9,14.3-9.3,21.3
	c-5.1,10.6-11.6,20.4-18,30.2c-3.6,5.5-7.6,10.7-11.8,15.8c-7.4,9.1-15.1,18-23.9,25.8c-0.4,0.4-0.9,0.8-1.3,1.2
	c-8.1,8.1-17.2,14.9-26.4,21.7c-3.9,2.9-8.3,5.3-12.4,8.1c-7.7,5.2-16.1,9.2-24.3,13.4c-5,2.5-10.3,4.6-15.5,6.8
	c-1.6,0.7-3.3,1.2-4.9,1.9c-2.9,1.4-5.9,2.1-9,2.8c-3.9,0.8-7.5,0.1-11-1.3c-5.8-2.3-9.6-6.6-12-12.2c-1.3-3-1.7-6.3-1.2-9.7
	c1.2-8.2,5.6-14.1,13.2-17.4c4.3-1.9,8.7-3.4,13-5.3c15-6.4,29-14.3,42.1-23.9c14.1-10.3,26.6-22.3,37.8-35.6
	c9.7-11.6,17.9-24.1,25-37.4c3.1-5.8,5.8-11.8,8.3-17.9c2.8-6.7,5.2-13.6,7.3-20.5c1.7-5.7,3-11.6,4.3-17.4
	c0.9-3.9,1.6-7.8,2.2-11.8c0.7-4.9,1.3-9.8,1.6-14.7c0.6-10.3,0.7-20.7,0-31c-0.1-2-0.4-4-0.6-6c-0.2-2.5-0.4-4.9-0.7-7.4
	c-0.1-0.6-0.1-1.2-0.2-1.8c-0.8-4.6-1.6-9.3-2.6-13.8c-0.9-4.2-2.1-8.4-3.2-12.6c-1.7-6.9-4.2-13.7-6.7-20.3
	c-5.1-13.2-11.4-25.7-19.1-37.6c-3.6-5.6-7.6-11-11.6-16.4c-5.8-7.7-12.4-14.8-19.2-21.5c-10.4-10.2-21.9-19.2-34.1-27.1
	c-6.9-4.4-14.1-8.4-21.5-11.9c-6.2-3-12.7-5.6-19.1-8.1c-2.8-1.1-5.7-2.2-8.1-4.2c-6.8-5.7-9.6-12.7-7.8-21.6
	c2.2-10.5,12.7-17.8,23-16.5c3.1,0.4,6.1,1.6,9.1,2.7c6.5,2.4,12.9,5.1,19.1,8c8,3.8,15.7,7.9,23.2,12.5c16.5,9.9,31.6,21.6,45.3,35
	c5,4.8,9.5,10.1,14.3,15.1c5.1,5.4,9.3,11.5,13.9,17.2c6.4,8,11.4,16.9,16.8,25.6c2.6,4.3,4.5,9,6.9,13.5c5,9.3,8.5,19.3,12.3,29.2
	c1.8,4.6,2.7,9.4,4.2,14.1c1.8,5.7,3.1,11.5,4.1,17.5c0.5,3.4,1.6,6.6,2.1,10c0.7,4.4,1.2,8.8,1.6,13.3c0.6,5.8,1.1,11.7,1.5,17.5
	C518.5,333.2,518.5,337.2,518.6,341.5z"/>
<path class="st0" d="M244.8,101c-0.9-0.6-1.6-1.1-2.3-1.5c-7.6-4-15.2-7.9-22.8-11.8c-18.4-9.5-36.9-19.1-55.3-28.6
	c-4.6-2.4-9.2-4.7-13.8-7.1c-1.4-0.7-2.7-1.4-4-2.3c-7.2-4.6-10.4-11.3-9.7-19.8c0.6-8,4.9-13.8,12-17.4c0.4-0.2,0.8-0.4,1.3-0.5
	c5.8-1.4,11.6-1.8,17.2,0.8c4.9,2.3,9.6,4.8,14.4,7.3c13.4,6.9,26.9,13.9,40.3,20.9c14.9,7.7,29.8,15.4,44.7,23.1
	c5.2,2.7,10.4,5.3,15.6,8c3.6,1.9,6.8,4.2,8.9,7.7c3,4.8,4.2,9.8,3.2,15.4c-0.5,2.8-1.5,5.4-2.8,7.9c-4,7.8-8.1,15.6-12.1,23.5
	c-9.2,17.7-18.3,35.4-27.5,53.2c-6.6,12.8-13.2,25.7-19.8,38.5c-1.8,3.5-4,6.6-7.2,9c-12.1,9.1-28.3,3-32.8-9.6
	c-2-5.8-1.7-11.3,0.9-16.7c2.4-4.9,5-9.8,7.5-14.7c9.1-17.7,18.3-35.4,27.4-53.2c4.9-9.6,9.9-19.2,14.8-28.8
	C243.8,103.3,244.2,102.3,244.8,101z"/>
<path class="st0" d="M282.3,577.9c0.6,1.5,1.5,1.8,2.3,2.2c8.9,4.6,17.7,9.2,26.6,13.8c20.6,10.7,41.3,21.3,61.9,32
	c2.1,1.1,4.2,2.1,6.2,3.3c4.4,2.6,7.7,6.2,9.3,11.1c0.7,2.1,1.2,4.3,1.3,6.5c0.3,6.7-2.2,12.4-7.2,16.9c-1.1,1-2.4,2-3.7,2.6
	c-1.2,0.6-2.7,0.8-4.1,0.9c-4.1,0.1-8.2,0-12.3,0c-1.9,0-3.7-0.5-5.4-1.4c-9.8-5.1-19.6-10.1-29.4-15.2c-15.4-8-30.8-16-46.3-23.9
	c-12.4-6.4-24.8-12.9-37.2-19.2c-5.1-2.6-9-6.4-11.1-11.7c-1.3-3.2-1.8-6.5-1.4-10c0.4-3.2,1.4-6.1,2.9-9
	c5.4-10.4,10.7-20.9,16.1-31.3c4.9-9.6,9.9-19.2,14.9-28.8c9.6-18.6,19.1-37.1,28.7-55.7c1.7-3.4,3.9-6.4,7-8.7
	c12.6-9.4,28.8-2.8,33.1,10.2c1.8,5.6,1.4,10.9-1.1,16.1c-2.3,4.9-4.8,9.6-7.3,14.4c-7.1,13.8-14.2,27.5-21.3,41.3
	c-6.7,12.9-13.4,25.8-20,38.8C283.9,574.6,283.1,576.3,282.3,577.9z"/>
</svg>
