<?xml version="1.0" encoding="utf-8"?>
<!-- Generator: Adobe Illustrator 24.1.2, SVG Export Plug-In . SVG Version: 6.00 Build 0)  -->
<svg version="1.1" id="Camada_1" xmlns="http://www.w3.org/2000/svg" xmlns:xlink="http://www.w3.org/1999/xlink" x="0px" y="0px"
	 viewBox="0 0 453.3 533.4" style="enable-background:new 0 0 453.3 533.4;" xml:space="preserve">
<style type="text/css">
	.st0{fill:#91979A;}
</style>
<path class="st0" d="M42,292.6c5.8,7.5,11.6,15,17.4,22.6c4.6,6,9.3,12,13.9,18c4.4,5.7,8.8,11.4,13.2,17c4,5.1,8.2,10.2,12.1,15.4
	c4.4,5.7,8.6,11.4,12.9,17.1c3.8,4.9,7.9,9.8,11.7,14.7c5.3,6.9,10.3,13.8,15.5,20.7c5.8,7.6,11.7,15.2,17.6,22.8
	c9,11.5,18.2,23,27.3,34.6c6.1,7.8,12,15.7,18.1,23.5c6.2,7.9,14.9,12.1,27.3,11.8c8.9-0.2,15.8-3,20.9-8.2
	c4.2-4.2,7.4-9.1,11.1-13.7c4.3-5.4,8.8-10.7,13.1-16.2c5.8-7.5,11.5-15.1,17.3-22.7c4.9-6.3,9.9-12.6,14.8-19
	c4.2-5.4,8.2-10.8,12.3-16.2c5.7-7.3,11.4-14.6,17.1-21.9c5.2-6.7,10.4-13.5,15.6-20.2c4.4-5.7,8.7-11.4,13.1-17.1
	c3.9-5,7.8-10.1,11.7-15.1c5.4-6.9,10.9-13.8,16.3-20.8c4.2-5.4,8.2-10.8,12.3-16.2c6.1-7.9,12.5-15.8,18.4-23.8
	c2-2.7,3.8-5.7,4.4-8.7c1.1-5.4,0.3-10.8-3.9-15.6c-5.6-6.4-12.8-10.6-23.2-10.7c-11.1-0.1-22.2,0-33.3,0c-6.4,0-12.7,0-19.1,0
	c-5.6,0-6-0.4-6-4.8c0-0.9,0-1.8,0-2.7c0-31.7,0-63.4,0-95.1c0,0,0,0,0,0c0-32.3-0.1-64.7,0.1-97c0-5.1-2.4-9.4-6.2-13.1
	c-5.6-5.4-12.9-8.5-22.3-8.5c-57.1,0.1-114.1,0-171.2,0c-4.6,0-8.9,0.5-13.1,2.2c-10.4,4.3-16.1,10.6-16.3,19.8c-0.1,2,0,4,0,6.1
	c0,62,0,124.1,0,186.1c0,1.3,0.1,2.5,0,3.8c-0.2,2.6-0.8,3.1-4.1,3.2c-1.1,0-2.3,0-3.4,0c-16.3,0-32.6,0.2-48.9-0.1
	c-5.8-0.1-10.9,1.1-15.7,3.4c-7,3.4-11.4,8.4-13,14.4c-1.8,6.6,0.3,12.9,5.2,18.6C36.2,285,39,288.9,42,292.6z M114,289.8
	c9.8-0.1,19.6,0,29.3-0.1c11.1-0.1,18.9-4.5,24.3-11.8c2.5-3.4,3.3-6.9,3.3-10.8c-0.1-64.1-0.1-128.1-0.1-192.2c0-6.3,0-6.3,8-6.3
	c32.4,0,64.9,0,97.3,0c1.1,0,2.3,0,3.4,0c3.5,0.1,4.3,0.7,4.5,3.4c0.1,1.3,0,2.5,0,3.8c0,61.5,0,123.1,0,184.6c0,2.5,0.2,5.1,0,7.6
	c-0.8,11,14.1,22.5,28.3,21.8c8.4-0.4,16.9-0.1,25.4-0.1c1.1,0,2.3,0,3.4,0c4.2,0.2,5,1.1,2.9,3.9c-3.7,4.9-7.4,9.7-11.1,14.5
	c-6.8,8.9-13.7,17.9-20.5,26.8c-4,5.2-8.1,10.2-12.1,15.4c-4.3,5.6-8.6,11.1-12.9,16.7c-5.3,6.8-10.7,13.7-16,20.5
	c-5.3,6.9-10.5,13.8-15.8,20.6c-5.3,6.9-10.7,13.7-16,20.6c-2.7,3.5-5.5,7.1-8.3,10.6c-0.9,1.1-2.1,2.2-3.8,3.9
	c-1.7-1.6-3-2.6-3.8-3.8c-5.6-7.3-11.1-14.6-16.8-21.9c-5.6-7.2-11.4-14.2-16.9-21.4c-4.2-5.4-8-10.9-12.1-16.3
	c-4-5.3-8.2-10.4-12.3-15.6c-5.5-7.1-10.9-14.2-16.4-21.3c-5.6-7.2-11.5-14.2-17-21.4c-5.1-6.7-10-13.5-15-20.2
	c-2-2.6-4.2-5.1-6.2-7.7C109,291.1,109.9,289.8,114,289.8z"/>
</svg>
