<?xml version="1.0" encoding="utf-8"?>
<!-- Generator: Adobe Illustrator 24.1.2, SVG Export Plug-In . SVG Version: 6.00 Build 0)  -->
<svg version="1.1" id="Camada_1" xmlns="http://www.w3.org/2000/svg" xmlns:xlink="http://www.w3.org/1999/xlink" x="0px" y="0px"
	 viewBox="0 0 508 533.4" style="enable-background:new 0 0 508 533.4;" xml:space="preserve">
<style type="text/css">
	.st0{fill:#91979A;}
</style>
<g>
	<path class="st0" d="M238.9,258.5c0-5-1-9.9-3.2-14.3c-1.6-3.2-3.2-6.4-5.8-9.1c-2.3-2.4-4.5-4.9-7.4-6.7c-1.3-0.8-2.5-1.6-3.8-2.3
		c-2.6-1.2-5.1-2.8-7.8-3.4c-3.6-0.9-7.4-1.3-11.1-1.4c-15.9-0.1-31.8,0-47.6,0c-1.4,0-2.8,0-4.4,0c0.2-2,1.1-2.5,2.5-2.6
		c2.8-0.2,5.5-0.8,8.2-1.8c2.3-0.9,4.8-1.3,7.1-2.5c1.8-0.9,3.9-0.9,5.4-2.4c0.2-0.2,0.7-0.2,1-0.3c0.9-0.4,1.7-0.7,2.5-1.2
		c2-1.1,4-2.2,6-3.3c1.9-1.1,3.8-2.2,5.6-3.4c1.7-1.1,3.3-2.4,4.9-3.7c1.5-1.1,3-2.3,4.4-3.5c2.1-1.9,4.3-3.7,6.3-5.7
		c2.5-2.6,4.9-5.3,7.2-8.2c2.3-2.8,4.3-5.8,6.4-8.8c0.9-1.3,1.8-2.8,2.6-4.2c0.8-1.4,1.7-2.8,2.3-4.3c0.9-2.4,2.9-4.4,3.2-7.1
		c0-0.3,0.3-0.5,0.4-0.8c0.5-1,1-2.1,1.3-3.1c1-3.3,1.9-6.6,2.9-9.9c0.2-0.6,0.4-1.2,0.6-1.9c0.3-1,0.6-2.1,0.7-3.1
		c0.4-2.5,0.5-5,1.1-7.5c0.7-2.8,1.3-5.6,1.3-8.5c0-3.5,0-7,0-10.6c0-1.4-0.3-2.7-0.5-4c-0.4-2.5-0.9-5.1-1.3-7.6
		c-0.6-3.2-0.8-6.5-2.1-9.6c-0.9-2.4-1-5-2.4-7.3c-0.1-0.1,0-0.3-0.1-0.4c-1.1-2.9-2.1-5.9-3.2-8.8c0-0.1-0.1-0.2-0.2-0.4
		c-0.6-1.1-1.2-2.3-1.8-3.4c-0.8-1.6-1.6-3.2-2.5-4.7c-1.1-1.9-2.5-3.6-3.6-5.5c-2.2-3.9-5.2-7.3-8.1-10.7
		c-5.3-6-11.2-11.4-17.7-16.1c-1.7-1.2-3.6-2.3-5.4-3.4c-1.8-1.1-3.6-2.3-5.6-3.2c-2.4-1.2-4.6-2.5-7.1-3.4
		c-2.5-0.9-4.8-2.1-7.3-2.9c-1.5-0.4-3-1.3-4.6-1.5c-0.9-0.1-1.9-0.3-2.7-0.7c-2.5-1.2-5.2-1.5-7.9-1.7c-1.4-0.1-2.8-0.4-4.2-0.7
		c-1-0.2-2-0.8-3.1-0.8c-7.7-0.1-15.4,0-23.1,0c-0.7,0-1.5,0-2.1,0.4c-1.7,1-3.6,1-5.4,1.2c-1.9,0.3-3.9,0.5-5.7,1.1
		c-3.2,1.1-6.5,1.5-9.6,3c-2.6,1.3-5.5,2-8.2,2.9c-0.3,0.1-0.5,0.3-0.7,0.4c-2.2,1.2-4.4,2.4-6.5,3.6c-2,1.1-4,2.1-5.9,3.4
		c-1.7,1.1-3.2,2.3-4.8,3.5c-2.6,2-5.2,4.1-7.6,6.2c-2,1.7-3.9,3.5-5.7,5.4c-1.8,1.8-3.5,3.7-5,5.8c-2.8,3.8-5.5,7.6-8.2,11.5
		c-1.1,1.6-2.1,3.4-3,5.2c-1.1,2.1-1.9,4.3-3,6.4c-1.7,2.9-2.5,6.2-3.8,9.3c-0.6,1.6-1.1,3.2-1.5,4.9c-0.3,1-0.5,1.9-0.7,2.9
		c-0.4,1.8-0.9,3.6-1.3,5.4c-0.4,1.5-0.9,3.1-1,4.6c-0.7,10.3-0.6,20.5,0,30.8c0,0.7,0.2,1.4,0.4,2.1c0.5,1.9,1.1,3.8,1.6,5.8
		c0.3,1.3,0.2,2.8,0.7,4c1.1,2.3,1.5,4.7,2.3,7.1c0.1,0.5,0.4,0.9,0.6,1.4c1.2,2.3,1.4,5,3.1,7c0.1,0.1,0.1,0.3,0.1,0.4
		c1.1,2.2,2.1,4.5,3.2,6.7c1.1,1.9,2.3,3.7,3.5,5.6c1.7,2.6,3.3,5.4,5.3,7.8c3.3,3.9,6.7,7.6,10.3,11.2c2.5,2.5,5.1,4.8,7.8,6.9
		c2.6,2,5.5,3.8,8.3,5.6c2.3,1.5,4.6,2.8,7,4.1c1.9,1,3.6,2.2,5.7,2.7c0.1,0,0.2,0.2,0.4,0.2c0.8,0.4,1.7,0.7,2.5,1.1
		c1,0.4,2,0.8,3,1.1c3,1,5.9,2.1,8.9,3.1c0.1,0,0.1,0,0.2,0c1.9,0.3,3.8,0.7,5.7,0.9c1.4,0.2,2,0.9,2.1,2.4c-1.4,0-2.8,0.1-4.1,0.1
		c-16.2,0-32.3-0.1-48.5,0.1c-4.7,0-9.5,0.4-13.8,2.7c-0.2,0.1-0.6,0.1-0.8,0.2c-2.2,1-4.5,1.8-6.5,3.2c-2.6,1.8-4.9,4.1-7.3,6.3
		c-2.6,2.4-4.5,5.3-6.1,8.5c-1.3,2.5-2.6,5.1-3.1,7.9c-0.6,2.9-1.8,5.7-1.8,8.8c0,40.2,0,80.5,0,120.7c0,2,0.3,3.8,1.1,5.7
		c0.4,0.9,1,1.8,1.1,2.8c0.4,2.5,2.1,4.4,3.6,6.2c2.5,3,5.4,5.3,9.1,6.9c2.5,1,4.8,1.7,7.5,1.7c7.3,0,14.5,0,21.8,0c0.5,0,1,0,1.5,0
		c1,0,1.6,0.6,1.6,1.6c0,1.1,0.1,2.3,0.1,3.4c0,29.6,0,59.2,0,88.8c0,2.8,0,5.6,1.5,8.2c0.2,0.4,0.2,1,0.4,1.4
		c0.5,1.2,1,2.3,1.6,3.5c1.3,2.5,3.1,4.6,5.3,6.3c2.1,1.6,4.1,3.3,7,3.1c1-0.1,2,0,3,0c10.9,0,21.7,0,32.6,0c19.2,0,38.4,0,57.6,0
		c2.8,0,5.5,0,7.8-2.1c2.4-2.1,4.7-4.3,6.4-6.9c2.1-3.3,3.4-6.9,3.1-10.9c-0.1-1.4,0-2.7,0-4.1c0-27.5,0-55,0-82.6
		c0-1.7,0-3.4,0-5.2c0-4.3,0.3-4.6,4.5-4.6c6.9,0,13.8-0.2,20.7,0.1c4,0.1,7.5-1.4,10.8-3.1c2.5-1.3,4.8-3.3,6.4-5.8
		c0.9-1.4,1.7-3,2.7-4.3c0.9-1.3,1.5-2.6,1.6-4.2c0.2-2.3,0.5-4.6,0.5-6.9c0-38.9,0-77.9,0-116.8C239,260.6,239,259.6,238.9,258.5z"
		/>
	<path class="st0" d="M275.7,180.9c1,3.1,2,6.2,2.9,9.3c0.1,0.3,0.4,0.6,0.5,0.9c0.5,1.1,1,2.2,1.5,3.3c0.2,0.4,0.2,0.8,0.5,1.2
		c1.4,2.5,2.8,4.9,4.3,7.4c0.9,1.5,1.8,3.1,2.8,4.5c1.8,2.5,3.7,5,5.6,7.5c2,2.4,4,4.9,6.2,7.1c4.7,4.5,9.4,8.9,14.9,12.5
		c3.6,2.3,7.1,5,11.2,6.6c0.3,0.1,0.6,0.4,0.9,0.6c2.1,1.1,4.1,2.5,6.3,3.1c3.1,0.9,5.8,3,9.1,2.9c0.3,0,0.6,0.4,1,0.5
		c1.6,0.5,3.1,1,4.7,1.4c2.3,0.6,4.6,1.2,6.9,1.7c0.8,0.2,1.7,0.4,2.5,0.5c5.3,0.3,10.6,0.6,16,0.9c5.3-0.3,10.7-0.6,16.1-0.9
		c0.8,0,1.5-0.3,2.3-0.5c1.4-0.4,2.9-1,4.3-1.2c2.5-0.4,4.9-0.9,7.3-1.8c1.7-0.6,3.4-1,5.1-1.6c1.1-0.4,2.2-0.9,3.3-1.4
		c2.6-1.2,5.2-2.3,7.8-3.5c2.1-1,4.2-2.1,6.2-3.3c1.7-1,3.4-2,5-3.1c1.7-1.2,3.4-2.6,5.1-3.9c1.3-1.1,2.7-2.1,4-3.2
		c2-1.7,3.9-3.5,5.8-5.3c1.9-1.9,3.9-3.8,5.5-5.9c2.7-3.5,5.7-6.9,8-10.8c1-1.7,2.2-3.3,3.1-5.1c1.1-2.1,1.9-4.4,3.2-6.3
		c1.7-2.5,2.4-5.5,3.6-8.2c1.2-2.7,1.8-5.7,2.7-8.6c1.2-4,2.3-8.1,2.6-12.4c0.2-2.1,1-4.2,1.2-6.3c0.5-7.6,1-15.2-0.9-22.7
		c-0.2-0.7-0.2-1.4-0.4-2.1c-0.4-2.7-0.8-5.4-1.3-8.1c-0.3-1.3-0.9-2.6-1.2-3.9c-0.5-2.2-0.7-4.5-2.1-6.5c-0.1-0.2-0.1-0.4-0.1-0.6
		c-0.4-1.3-0.8-2.6-1.3-3.8c-0.4-1-0.5-1.9,0.2-2.8c0.4-0.6,0.9-1.1,1.4-1.6c4.1-4.1,8.2-8.2,12.3-12.3c3.1-3.1,6.5-6,8.3-10.2
		c1.3-3.1,1.9-6,0.9-9.1c-0.4-1.3-1.3-2.4-1.6-3.7c-0.5-2.1-2.2-3.3-3.5-4.8c-1.4-1.6-3.4-2-5.1-2.9c-5-2.6-9.7-0.9-14.1,1.5
		c-1.9,1-3.3,2.9-4.9,4.5c-3.3,3.3-6.5,6.6-9.8,9.9c-1.7,1.7-2.8,1.6-4.6,0c-0.1,0-0.1-0.1-0.2-0.2c-1.7-1.7-3.4-3.5-5.1-5.1
		c-1.8-1.7-3.6-3.5-5.6-5c-2.4-1.8-4.9-3.4-7.4-5.1c-1.3-0.9-2.6-1.7-4-2.5c-2.1-1.2-4.1-2.5-6.3-3.6c-2.2-1-4.2-2.5-6.6-2.9
		c-0.3-0.1-0.7-0.3-1-0.4c-2.9-1.1-5.7-2.2-8.6-3.3c-0.1-0.1-0.3,0-0.4-0.1c-1.7-0.4-3.3-0.9-5-1.3c-1.4-0.4-2.8-0.8-4.2-1.1
		c-3.5-0.6-6.9-1.1-10.4-1.6c-7-1-14-1-21,0.2c-2.9,0.5-5.8,0.9-8.7,1.4c-1.2,0.2-2.5,0.3-3.6,0.8c-3.4,1.4-7.2,1.4-10.4,3.3
		c-3.2,0-5.5,2.7-8.7,2.9c-0.3,0-0.6,0.4-0.9,0.6c-0.8,0.4-1.6,0.9-2.4,1.3c-0.6,0.3-1.2,0.4-1.8,0.7c-2.2,1.3-4.4,2.6-6.6,3.9
		c-1.6,1-3.2,1.9-4.7,3c-1.7,1.2-3.4,2.6-5,3.9c-2.1,1.7-4.3,3.3-6.2,5.2c-2.6,2.6-5.2,5.3-7.6,8c-2.1,2.4-3.9,4.9-5.9,7.4
		c-0.8,1.1-1.6,2.2-2.3,3.3c-1.1,1.8-2.1,3.7-3.2,5.6c-2,3.6-3.9,7.3-5.8,11c-0.2,0.3-0.2,0.7-0.3,1c-0.3,0.9-0.6,1.9-1,2.8
		c-1.1,3.4-2.3,6.8-3.4,10.1c0,0.1,0,0.3-0.1,0.4c-0.3,1.6-0.5,3.3-1,4.8c-0.7,2.2-1,4.4-1.3,6.7c-0.9,9.9-0.7,19.8,0.2,29.7
		c0.1,0.9,0.1,1.9,0.5,2.8c1.6,3.9,1.1,8.3,3.3,11.9C275.6,180.6,275.6,180.8,275.7,180.9z M302.9,143.8c0.4-2,0.4-4,0.7-6
		c0.3-1.8,0.7-3.5,1.2-5.2c0.3-1.1,0.6-2.2,0.9-3.3c0.5-1.4,1-2.8,1.5-4.2c0.3-0.9,0.7-1.9,1-2.8c0.1-0.2,0-0.4,0.1-0.6
		c1.2-2.2,2.3-4.4,3.6-6.5c0.8-1.4,1.7-2.8,2.5-4.2c2.3-3.7,5.2-7,8.1-10.1c3.5-3.7,7.5-6.8,11.6-9.7c2.1-1.5,4.5-2.4,6.6-3.9
		c2.3-1.6,4.9-2.3,7.3-3.4c1.8-0.8,3.7-1.4,5.6-2.1c0.2-0.1,0.4-0.2,0.6-0.2c5-0.3,9.7-2.3,14.8-2.5c5.1-0.2,10.1,0,15,0.8
		c2.9,0.5,5.8,1.2,8.6,1.8c0.6,0.1,1.2,0.5,1.8,0.7c1,0.4,2,0.7,3,1c0.5,0.2,1,0.2,1.4,0.4c3.8,1.9,7.7,3.6,11.4,5.8
		c4.6,2.9,8.8,6.3,12.8,10c0.9,0.8,1.7,1.7,2.5,2.6c1.5,1.6,1.4,3.3-0.2,4.9c-4.8,4.8-9.6,9.5-14.4,14.3c-4.1,4.1-8.1,8.2-12.2,12.3
		c-4.1,4.1-8.2,8.1-12.3,12.2c-1.1,1.1-2.1,2.1-3.1,3.2c-1.6,1.7-2.7,1.7-4.3,0.1c-3.8-3.8-7.6-7.7-11.4-11.5
		c-4.1-4.1-8.2-8.1-12.3-12.1c-1-1-1.9-2.2-3-3c-2.1-1.6-4.3-3.4-7.1-3.5c-2.5-0.1-5,0-7.5,0c-2.3,0-4,1.6-5.6,2.9
		c-4.7,3.8-7,8.8-6.1,14.9c0.1,0.9,0.6,1.8,0.9,2.6c0.1,0.3,0.4,0.6,0.5,1c0.7,3.5,3.6,5.6,5.8,8c1.9,2,3.9,3.9,5.9,5.9
		c2.8,2.7,5.6,5.5,8.3,8.2c1.8,1.8,3.5,3.7,5.3,5.5c1.7,1.7,3.4,3.4,5.1,5.1c2,2,4,4,6,6c2.4,2.4,4.5,5,7.2,7
		c2.4,1.9,5.1,3.6,8.4,3.3c0.5,0,1,0,1.5,0c5.3,0.6,9.2-1.9,12.7-5.5c4.1-4.2,8.3-8.3,12.4-12.5c4.9-5,9.9-9.9,14.8-14.9
		c4.8-4.8,9.6-9.6,14.5-14.4c1.7-1.7,3.4-3.5,5.1-5.2c0.2-0.2,0.5-0.4,1-0.8c1.3,0.9,1.9,1.9,2.1,3.3c1.1,6.9,1.2,13.9,0,20.8
		c-0.5,3-1.2,5.9-1.8,8.8c-0.1,0.4-0.2,0.8-0.4,1.2c-0.8,1.4-1.3,2.8-1.6,4.4c-0.2,1.2-1,2.3-1.5,3.5c-1,2.1-1.7,4.5-3,6.4
		c-2,2.9-3.5,6.2-6,8.8c-2.4,2.5-4.6,5.3-6.9,7.8c-1.2,1.2-2.6,2.2-3.9,3.3c-0.8,0.6-1.4,1.4-2.2,2c-2.8,2.4-6.1,4.2-9.3,6.1
		c-2,1.1-4.1,1.9-6.2,2.8c-1.2,0.6-2.5,1.1-3.7,1.6c-0.8,0.3-1.6,0.5-2.4,0.7c-1,0.3-2,0.3-2.9,0.8c-2.6,1.2-5.4,1.5-8.1,1.7
		c-2.3,0.2-4.6,0.3-6.9,0.7c-2.2,0.3-4.4,0.3-6.6,0c-3.6-0.5-7.3-0.8-10.9-1.2c-1-0.1-1.9-0.6-2.9-0.8c-1.4-0.4-2.7-0.8-4.1-1.1
		c-0.3-0.1-0.6,0-0.9-0.1c-2.7-1.1-5.4-2.2-8.1-3.4c-1.5-0.7-3-1.6-4.5-2.4c-2.8-1.7-5.6-3.3-8.3-5.3c-2.5-1.9-4.7-4.1-7-6.2
		c-2.9-2.6-5.4-5.7-7.6-8.9c-1.3-1.9-2.4-3.8-3.6-5.8c-1.2-2.1-2.4-4.2-3.6-6.3c-0.4-0.8-0.5-1.8-0.9-2.6c-1.9-3.5-2-7.6-3.7-11.2
		c-0.1-0.1-0.1-0.3-0.1-0.4C303.4,157.9,301.4,150.9,302.9,143.8z"/>
	<path class="st0" d="M491.5,312.6c-1-3-2.3-5.9-4.7-8c-1.7-1.5-3.4-3.1-5.7-3.6c-3.3-0.7-6.7-0.8-10.1,0c-1.1,0.2-2.3,0.8-3.3,1.5
		c-1.5,1-2.8,2.1-4.2,3.3c-1.8,1.7-3.6,3.4-5.4,5.2c-2.6,2.6-5.1,5.2-7.7,7.9c-0.7-0.4-1-0.5-1.3-0.8c-3.2-3-6.2-6.1-9.5-8.9
		c-2.6-2.3-5.5-4.3-8.3-6.3c-1.4-1-2.8-1.9-4.3-2.8c-2.1-1.3-4.2-2.7-6.5-3.7c-2-0.9-3.8-2.1-5.9-2.8c-1.6-0.6-3.1-1.3-4.7-1.9
		c-0.7-0.2-1.3-0.6-2-0.8c-1-0.4-2-0.7-3-1c-1.5-0.4-3-0.8-4.5-1.2c-1.7-0.4-3.3-0.9-5-1.2c-2.2-0.4-4.4-0.7-6.6-1.2
		c-2.6-0.6-5.2-1.1-7.9-1c-5,0.1-10.1,0-15.1,0c-1.4,0-2.7,0.2-4.1,0.4c-2.5,0.5-5,1.4-7.6,1.5c-4.3,0.2-8,2.4-12.1,2.9
		c-0.6,0.1-1.2,0.5-1.8,0.8c-0.5,0.2-1,0.5-1.6,0.7c-2.8,1.1-5.5,2.2-8.3,3.3c-0.3,0.1-0.5,0.3-0.8,0.4c-1.9,1.1-3.8,2.2-5.8,3.3
		c-1.9,1-3.8,2-5.5,3.2c-2.8,1.9-5.5,4-8.2,6.1c-4,3.2-7.8,6.6-11.1,10.4c-3,3.5-6.1,6.9-8.7,10.8c-1,1.5-2.2,2.8-3.1,4.3
		c-1.4,2.4-2.7,5-4,7.5c-1,1.9-2,3.8-2.7,5.8c-1,3-2.8,5.6-3.2,8.8c-0.1,0.5-0.4,1.1-0.6,1.6c-0.2,0.4-0.3,0.8-0.4,1.2
		c-0.6,2.7-1.2,5.4-1.9,8.1c-0.2,1-0.6,1.9-0.7,2.9c-0.4,3.3-0.7,6.7-1,10.1c-0.9,8.9,0.3,17.6,1.2,26.4c0,0.5,0.3,1,0.4,1.4
		c0.4,1.4,0.9,2.9,1.2,4.4c0.5,2.5,0.9,4.9,2.1,7.2c0.3,0.5,0.3,1.1,0.5,1.6c0.4,1.1,0.7,2.3,1.1,3.4c0.4,1.1,0.9,2.2,1.4,3.3
		c0.2,0.6,0.4,1.2,0.7,1.8c1.1,2.1,2.2,4.1,3.3,6.2c1,1.9,1.9,3.8,3.1,5.6c2.2,3.3,4.5,6.4,6.7,9.6c0.9,1.2,1.8,2.4,2.8,3.5
		c1.9,2.1,3.9,4.2,5.9,6.2c1.8,1.7,3.6,3.4,5.5,5c2.7,2.2,5.5,4.3,8.3,6.4c1.6,1.2,3.3,2.2,5.1,3.2c1.9,1.1,3.8,2,5.7,3
		c2.2,1.1,4.4,2.3,6.6,3.4c0.3,0.2,0.7,0.1,1,0.3c0.9,0.3,1.7,0.6,2.6,1c0.7,0.3,1.4,0.7,2.2,0.9c3.8,1,7.4,2.5,11.3,3.2
		c2.4,0.4,4.7,1.5,7.1,1.6c6.8,0.4,13.6,0.7,20.5,0.5c4.5-0.1,9.1,0.1,13.5-1.1c1-0.3,2-0.7,3.1-0.9c4-0.7,7.9-1.9,11.8-3.1
		c1.7-0.5,3.3-1.4,5-1.9c1.3-0.4,2.5-0.6,3.5-1.5c0.4-0.4,1-0.5,1.5-0.7c2.2-1.1,4.5-1.9,6.5-3.2c2.9-1.8,5.8-3.5,8.6-5.5
		c4.4-3.2,8.6-6.6,12.4-10.4c2.5-2.5,4.8-5,7.1-7.7c2-2.3,4-4.7,5.7-7.2c2-3.1,4.3-6,5.7-9.5c0.6-1.5,1.5-2.9,2.2-4.4
		c1.2-2.6,2.7-5.2,3.6-7.9c1-3.3,2.2-6.6,3.1-10c0.9-3.3,1.6-6.5,2-9.9c0.1-1.4,0.5-2.7,0.7-4c0.4-2.5,0.8-5,1-7.4
		c0.9-9.1-1.3-18-2.3-27c0-0.1,0-0.3-0.1-0.4c-1.9-3.5-1.6-7.7-3.7-11.2c-0.1-0.2-0.1-0.6-0.2-0.8c-0.5-1.4-0.9-2.9-1.4-4.2
		c-0.3-0.7-0.5-1.3,0.1-2c0.5-0.6,0.9-1.3,1.4-1.9c1.6-1.6,3.3-3.2,4.9-4.8c4.7-4.7,9.3-9.4,13.9-14.2c0.4-0.4,0.7-1.1,1-1.6
		c0.4-0.8,0.7-1.7,1.2-2.5C492.3,318.5,492.5,315.5,491.5,312.6z M443.4,398.2c-0.5,2.7-0.8,5.6-1.7,8.2c-0.9,2.5-1.7,5-2.6,7.4
		c-0.5,1.5-1.2,2.9-1.8,4.3c-0.6,1.3-1.4,2.7-2.1,3.9c-2.5,4-5,7.9-8.1,11.5c-3.2,3.7-6.6,7.1-10.5,10c-2.9,2.2-6.1,4.2-9.3,6
		c-2.1,1.2-4.5,1.8-6.5,3.2c-0.2,0.2-0.5,0.3-0.8,0.4c-2.1,0.9-4.5,1-6.4,2.5c-3.1,0.1-6,1.3-9,1.8c-3.8,0.6-7.7,0.8-11.6,1.1
		c-3.7-0.4-7.4-0.7-11.1-1.1c-0.8-0.1-1.6-0.5-2.4-0.7c-1.5-0.3-3-0.6-4.4-0.9c-0.5-0.1-1,0-1.5-0.2c-2.8-1.1-5.7-2.2-8.5-3.4
		c-2.2-1-4.4-1.9-6.6-3.1c-1.6-0.8-3.1-1.7-4.5-2.8c-3.1-2.4-6.1-4.9-9.1-7.4c-3-2.6-5.5-5.7-8-8.9c-1.7-2.3-3.1-4.8-4.7-7.1
		c-1.4-2-2-4.4-3.6-6.3c-0.5-0.6-0.3-1.7-0.7-2.4c-2-3.2-2-7.2-3.7-10.5c-0.1-0.2-0.2-0.4-0.2-0.6c-0.6-7.1-2.5-14-1.5-21.2
		c0.1-0.4,0.1-0.7,0.1-1.1c0.4-2.8,0.7-5.6,1.3-8.3c0.8-3.7,1.9-7.3,3.3-10.8c0.9-2.1,1.7-4.2,2.7-6.2c1.3-2.5,2.6-4.9,4.2-7.1
		c1.7-2.4,3.3-4.9,5.1-7.1c1.9-2.2,4-4.3,6.1-6.2c2.1-1.9,4.3-3.8,6.6-5.5c1.8-1.4,3.8-2.5,5.8-3.7c1.8-1.1,3.8-2,5.6-3
		c0.7-0.4,1.4-0.8,2.1-1c2.7-0.8,5.1-2.6,8.1-2.6c0.1,0,0.1,0,0.2-0.1c4.5-2.5,9.7-1.8,14.5-2.7c4.4-0.8,8.7-0.2,13.1,0.4
		c1,0.1,2,0.2,3,0.2c2.4,0.2,4.9,0.2,7.1,1.5c0.5,0.3,1.1,0.6,1.6,0.6c3.4,0,6.1,2.1,9.1,3c1.5,0.5,3,1.3,4.4,2.1
		c3.6,2.1,7.3,4.2,10.5,6.9c3.1,2.6,6,5.5,8.9,8.3c1.3,1.2,1.1,3-0.2,4.3c-3.4,3.3-6.7,6.6-10,9.9c-3.5,3.5-7.1,7-10.6,10.6
		c-2.5,2.5-5,5.1-7.5,7.6c-2.7,2.7-5.5,5.4-8.2,8.1c-1.9,1.9-3.8,3.9-5.7,5.8c-0.6,0.6-1.5,1.1-2.3,1.5c-0.4,0.1-1.1-0.2-1.5-0.5
		c-1.4-1.2-2.7-2.5-4.1-3.8c-6.6-6.6-13.2-13.2-19.9-19.8c-1.7-1.7-3.5-3.4-5.2-5.1c-0.3-0.2-0.5-0.6-0.8-0.7c-3.6-1.2-7-3-11-2
		c-0.5,0.1-1.1,0.4-1.6,0.6c-0.5,0.2-1,0.7-1.5,0.8c-2.9,0.6-4.9,2.4-6.6,4.8c-2.2,3.1-3.6,6.4-3.4,10.3c0.1,1.7,0.7,3.2,1.2,4.8
		c0.9,3.3,3.3,5.5,5.5,7.8c3.3,3.4,6.8,6.7,10.2,10.1c4.4,4.4,8.8,8.8,13.2,13.2c3.9,3.9,7.7,7.9,11.6,11.8c1.6,1.6,3.3,3.1,5,4.7
		c0.2,0.1,0.3,0.3,0.5,0.4c4.4,1.6,8.6,3.5,13.4,1.1c1.9-0.9,3.8-1.6,5.4-3c1.1-0.9,2.1-1.9,3.1-2.9c4-4.1,7.9-8.2,12-12.2
		c3.4-3.4,7-6.7,10.4-10.1c4.1-4.1,8-8.3,12-12.4c3.3-3.3,6.7-6.6,10.1-9.9c0.3-0.3,0.5-0.7,0.8-1c1.1-1.2,1.9-1.1,2.6,0.3
		c0.4,0.7,0.6,1.5,0.7,2.2C444.7,383.9,444.6,391.1,443.4,398.2z"/>
	<path class="st0" d="M144.2,296.5c-0.7-3.4-2.5-6.2-5.1-8.5c-1.4-1.2-3.2-2.3-5-2.8c-3.6-1-7.4-0.7-11.1,0c-0.7,0.1-1.3,0.6-1.9,1
		c-0.5,0.3-1,0.8-1.6,1.1c-3.9,2.7-6.1,6.6-6.6,11.3c-0.6,5,1.2,9.3,4.6,12.9c1.3,1.4,3,2.7,4.7,3.3c3.8,1.3,7.7,1.6,11.8,0.3
		c3.2-1,5.6-2.9,7.5-5.4c2-2.7,3.3-5.9,3-9.4C144.4,298.9,144.4,297.7,144.2,296.5z"/>
</g>
</svg>
