<?xml version="1.0" encoding="utf-8"?>
<!-- Generator: Adobe Illustrator 24.1.2, SVG Export Plug-In . SVG Version: 6.00 Build 0)  -->
<svg version="1.1" id="Camada_1" xmlns="http://www.w3.org/2000/svg" xmlns:xlink="http://www.w3.org/1999/xlink" x="0px" y="0px"
	 viewBox="0 0 527 435" style="enable-background:new 0 0 527 435;" xml:space="preserve">
<style type="text/css">
	.st0{fill:#91979A;}
</style>
<path class="st0" d="M13,239.7c5.1-22.4,11.4-32.9,29.3-48.3c16.1-13.8,39.2-18.4,60.1-19.2c23.6-1,47.3-0.2,72.2-0.2
	c2.7,22.9,8,30.8,25.6,48.2c-58.4,23.1-82.1,66.9-77.5,128c-38.4-1.6-74.2-9.9-109.6-20.9C13,298,13,268.8,13,239.7z"/>
<path class="st0" d="M385.6,355c0,11.7-0.8,23.4,0.3,34.9c0.8,9.2-3.3,12.9-10.8,15.8c-42.7,16.3-87.1,21.3-131.9,16.5
	c-31.6-3.4-62.7-11.9-94-17.8c-7-1.3-9.5-4.4-9.3-11.6c0.5-25.8-1.7-51.9,1-77.5c4.7-45,38.2-77.4,84.7-81.2
	c27.4-2.3,55.4-1.7,82.8,1.3c43,4.6,75.7,42.5,77.1,85.7c0.4,11.3,0.1,22.6,0.1,33.9C385.4,355,385.5,355,385.6,355z"/>
<path class="st0" d="M334.8,155.7c0.1,40.1-31.9,72.6-71.7,72.8c-39.7,0.1-72.5-32.6-72.5-72.2c0-39.8,32.5-72.1,72.5-72.1
	C302.5,84.3,334.7,116.4,334.8,155.7z"/>
<path class="st0" d="M136.5,9.8c38.1,0.1,71.3,31.7,71.1,68.3c0,4.1-2.1,9.3-5,12.1c-13.4,12.7-21.8,27.9-27.2,45.4
	c-1.4,4.4-5.4,9.5-9.5,11.4c-26.8,12.8-58.3,7.2-79.9-13.4c-21-20.1-27.6-51.2-16.8-78.5C80.3,27.3,106.4,9.7,136.5,9.8z"/>
<path class="st0" d="M514,239.7c-5.1-22.4-11.4-32.9-29.3-48.3c-16.1-13.8-39.2-18.4-60.1-19.2c-23.6-1-47.3-0.2-72.2-0.2
	c-2.7,22.9-8,30.8-25.6,48.2c58.4,23.1,82.1,66.9,77.5,128c38.4-1.6,74.2-9.9,109.6-20.9C514,298,514,268.8,514,239.7z"/>
<path class="st0" d="M390.5,9.8c-38.1,0.1-71.3,31.7-71.1,68.3c0,4.1,2.1,9.3,5,12.1c13.4,12.7,21.8,27.9,27.2,45.4
	c1.4,4.4,5.4,9.5,9.5,11.4c26.8,12.8,58.3,7.2,79.9-13.4c21-20.1,27.6-51.2,16.8-78.5C446.7,27.3,420.6,9.7,390.5,9.8z"/>
</svg>
