<?xml version="1.0" encoding="utf-8"?>
<!-- Generator: Adobe Illustrator 24.1.2, SVG Export Plug-In . SVG Version: 6.00 Build 0)  -->
<svg version="1.1" id="Camada_1" xmlns="http://www.w3.org/2000/svg" xmlns:xlink="http://www.w3.org/1999/xlink" x="0px" y="0px"
	 viewBox="0 0 361 138.6" style="enable-background:new 0 0 361 138.6;" xml:space="preserve">
<style type="text/css">
	.st0{fill:#FFFFFF;}
</style>
<g>
	<path class="st0" d="M260.4,43.7c-0.1,0.7-0.1,1-0.1,1.5c-0.1,4.6-0.2,9.3-0.3,13.8c-0.1,3.8-0.6,7.6-0.7,11.3
		c-0.3,5.5-0.7,10.9-0.8,16.5c-0.1,5.2-0.1,10.2,0.1,15.4c0.2,4.4,3,7.7,7.3,9.1c0.8,0.2,1,0.7,1,1.3c0,1.7,0,3.3,0.1,4.9
		c0,0.8-0.3,1-1.1,1c-7.4,0-14.8,0-22.2,0c-0.7,0-1.1-0.3-1.1-1c0-1.6,0.1-3,0-4.6c0-0.9,0.3-1.5,1.2-1.8c2.5-0.9,3.8-2.8,4.8-5.1
		c1-2.6,1.3-5.4,1.6-8.2c0.2-2.6,0.7-5.2,0.9-7.7c0.4-5.2,0.7-10.1,1-15.3c0.2-2.6,0.7-5.2,0.9-7.7c0.3-4.9,0.7-9.8,1-14.6
		c0.2-3.6,0.8-7.2,0.7-10.7c-0.1-3.1-0.3-6.4-1.8-9.3c-1-2-2.7-3.6-4.9-4.3c-1.6-0.4-1.7-0.6-1.7-2.2c0-1.3,0-2.7,0-3.9
		c0-0.8,0.2-1.1,1.1-1.1c9.8,0,19.5,0,29.3,0c0.4,0,0.9,0,1.5,0c0.9-0.1,1.2,0.3,1.2,1.2c0.2,3.4,0.2,6.8,0.8,10.1
		c0.8,4.3,2,8.3,3.1,12.4c1,3.5,2.2,7,3.4,10.5c0.2,0.9,0.4,1.8,0.7,2.7c0.6,1.9,1.2,3.8,1.8,5.8c0.7,2.4,1.3,4.8,2,7.3
		c0.4,1.6,1,3,1.5,4.6c0.3,1,0.4,2,0.8,2.9c0.1,0.4,0.6,0.7,0.8,1.1c0.3-0.3,0.8-0.6,0.9-1c1-3.6,1.9-7.1,2.9-10.6
		c0.7-2.5,1.3-4.9,2-7.4c0.6-1.9,1.1-3.7,1.7-5.5c0.7-2.5,1.3-4.9,2-7.4c0.3-1.2,0.8-2.5,1.1-3.8c0.9-3.6,2-7.2,2.6-10.8
		c0.6-3.5,1.2-7.1,0.9-10.6c-0.1-1.5,0-1.5,1.5-1.5c10.1,0,20,0,30.1,0c0.8,0,1.2,0.2,1.2,1.1c0,1.6,0,3.3,0,4.8
		c0,0.8-0.3,1.1-1,1.3c-1.6,0.6-3.3,1-4.6,1.9c-0.8,0.6-1.2,1.9-1.7,2.9c-0.8,1.9-0.7,3.9-0.6,5.8c0.3,5.1,0.8,10.1,1.1,15.1
		c0.1,1.8,0,3.5,0.2,5.3c0.2,2.8,0.7,5.5,0.9,8.3c0.4,5.8,0.8,11.7,1.1,17.5c0.1,1.3,0.4,2.7,0.6,4.2c0.1,1.8,0.1,3.5,0.3,5.3
		c0.2,2.8,0.4,5.6,0.9,8.4c0.4,2.7,1.3,5.3,3.5,7.2c0.9,0.8,2,1.2,3,1.9c0.3,0.2,0.8,0.8,0.9,1.2c0.1,1.7,0,3.4,0,5.1
		c0,0.7-0.2,1.1-1,1.1c-11.2,0-22.6,0-33.8-0.1c-1.2,0-2.5,0-3.7,0c-1,0-1.3-0.3-1.2-1.5c0.1-1.5,0.1-2.9,0-4.3
		c-0.1-1,0.3-1.7,1.1-2.2c1.3-1,2.8-2,4-3.3c1.7-1.7,2.2-4,2.5-6.4c0.7-5.1-0.1-10-0.3-14.9c-0.1-1.7,0-3.3-0.1-4.9
		c-0.1-2.8-0.4-5.6-0.7-8.4c-0.2-2.9-0.3-5.9-0.4-8.9c-0.2-4.2-0.6-8.4-0.8-12.5c-0.1-1.2,0-2.5,0-3.6c0-0.7,0-1.3-0.1-2
		c0-0.2-0.3-0.4-0.4-0.7c-0.2,0.2-0.4,0.4-0.4,0.7c-0.8,4.5-1.8,8.9-3.4,13c-0.8,2.1-1.2,4.4-1.9,6.5c-1.7,5.3-3.3,10.6-4.9,15.8
		c-1.1,3.5-2.4,7-3.5,10.2c-0.6,1.7-1,3.5-1.5,5.2c-0.8,2.8-1.7,5.5-2.5,8.3c-0.6,1.8-0.9,3.7-1.3,5.5c-0.4,2-0.8,4-1.2,6.1
		c-0.3,1.7-0.7,1.9-2.4,1.8c-1.6,0-3.3,0-4.8,0c-1,0-1.5-0.4-1.7-1.5c-0.4-2.6-1-5.2-1.7-7.7c-0.4-1.9-0.9-3.7-1.3-5.6
		c-0.2-0.8-0.4-1.6-0.7-2.4c-0.8-2.8-1.7-5.6-2.5-8.5c-0.6-1.8-0.9-3.7-1.5-5.5c-0.8-2.7-1.6-5.3-2.4-8c-0.4-1.8-0.9-3.5-1.3-5.3
		c-0.1-0.2-0.1-0.4-0.1-0.8c-0.6-1.9-1.1-3.8-1.7-5.7c-0.4-1.5-0.9-3-1.3-4.5c-0.8-2.6-1.6-5.2-2.2-7.7c-0.9-3.3-1.6-6.6-2.4-9.9
		C261.7,45.5,261.5,44.5,260.4,43.7z"/>
	<path class="st0" d="M181.1,21.4c6.2,0,12.4-0.1,18.5,0c4.2,0.1,8.3,0.3,12.2,1c5.6,0.9,10.7,3.1,15.1,6.6
		c3.4,2.7,5.9,6.2,7.4,10.2c0.9,2.4,1.3,4.9,1.8,7.5c0.7,3.5,0,7-0.6,10.1c-0.3,2.5-1.8,4.9-2.8,7.3c-2,4.4-5.5,7.4-9.7,9.8
		c-2.1,1.2-4.5,1.9-6.7,2.7c-3.5,1.1-7.1,1.1-10.6,1c-2.1,0-4.2-0.2-6.2-1.1c-2.1-0.9-2.8-3.8-2-5.5c0.4-0.8,1-1.1,1.9-1.1
		c2.4,0.1,4.6-0.3,6.7-1.7c1.7-1.1,2.7-2.8,3.3-4.6c1-3.1,1-6.5,1.1-9.8c0.1-4.3-0.1-8.4-0.7-12.5c-0.2-1.5-0.8-2.9-1.2-4.3
		c-0.3-0.9-0.7-1.9-1.1-2.8c-0.9-2-2.7-3.4-4.4-4.5c-1.3-0.9-3.1-1.1-4.8-1.3c-1.8-0.2-3.6-0.2-5.4-0.3c-0.9,0-1.3,0.3-1.3,1.3
		c0,5.2,0.1,10.1,0.1,15.3c0,18.2,0,36.4,0,54.5c0,2.4,0.2,4.7,0.8,7.1c0.6,2.2,2.1,3.8,4.4,4.6c1.2,0.4,2.6,0.6,3.8,0.9
		c0.3,0.1,0.8,0.6,0.8,0.8c0.1,1.7,0,3.5,0,5.2c0,0.8-0.4,1-1.1,1c-1,0-2,0-2.9,0c-11.9,0-23.9,0-35.8,0c-0.8,0-1.1-0.2-1.1-1
		c0-1.7,0-3.5,0.1-5.2c0-0.3,0.6-1,0.9-1c4.4-0.6,6.7-4.9,6.7-8.8c0-21.9,0-43.8,0-65.7c0-2.7-1-4.8-2.7-6.8c-1-1.1-2.4-1.7-3.8-1.9
		c-0.9-0.1-1.2-0.6-1.1-1.5c0.1-1.6,0.1-3.3,0.1-4.8c0-0.7,0-1.2,1-1.2C168.3,21.4,174.7,21.4,181.1,21.4L181.1,21.4z"/>
	<path class="st0" d="M49,21.4c10.7,0,21.6,0,32.2,0c0.7,0,1.2,0,1.2,0.9c0,4.3,0,8.4,0,12.6c0,1.9,0,3.9,0,5.8
		c0,0.9-0.2,1.3-1.2,1.3c-2.6,0-5.2,0.1-7.7,0c-0.3,0-0.8-0.3-1-0.7c-1.6-2.4-3.1-4.7-4.8-7c-0.8-1.1-2-2-3-2.9
		c-0.4-0.4-1.1-0.7-1.6-1c-1.7-1.3-3.7-1.6-5.7-1.8c-2.8-0.3-5.7-0.2-8.5-0.3c-1.5,0-1.7,0.2-1.7,1.7c0,9.7,0,19.2,0,28.9
		c0,1.3,0,2.7,0,4c0,1,0.4,1.5,1.3,1.3c1.9-0.2,3.9-0.6,5.8-0.8c2.1-0.2,3.9-1.1,5.6-2.2c2.2-1.5,3.6-3.6,4.3-6.2
		c0.1-0.6,0.2-1.1,0.6-1.6c0.3-0.3,0.9-0.8,1.3-0.8c2.2-0.1,4.4,0,6.6,0c1.1,0,1.3,0.1,1.3,1.2c0,9.1,0,18.2,0,27.3
		c0,0.2,0,0.4,0,0.7c0,2.1,0,2.1-2.1,2.1c-1.9,0-3.9,0-5.8,0c-0.9,0-1.7-0.8-1.9-2c-0.6-3.3-2.1-5.8-4.7-7.9c-2-1.6-4.4-2.5-7-2.7
		c-1.2-0.1-2.4-0.3-3.6-0.6c-1.6-0.3-1.8-0.2-1.8,1.5c0,6.5,0,12.9,0,19.4c0,3.5-0.1,7,0.2,10.2c0.1,1.9,0.9,3.8,1.5,5.6
		c0.8,2.5,2.8,3.5,5.2,3.9c2.7,0.6,5.4,0.3,7.9-0.9c2-1,3.8-2.7,5.5-4.3c2.7-2.6,4.6-5.7,5.9-9.2c0.3-0.8,0.6-1.6,0.9-2.4
		c0.2-0.7,0.8-0.9,1.5-0.9c2.4,0,4.7,0,7.1,0c1.1,0,1.3,0.2,1.2,1.2c-0.3,4-0.7,8.1-1.1,12c-0.3,3.3-0.6,6.4-1,9.7
		c-0.2,1.7-0.3,1.8-2,1.8c-20.9,0-41.7,0-62.6,0c-2,0-2.1-0.1-2-2.2c0-1.2,0-2.5,0-3.6c0-0.9,0.2-1.2,1.1-1.3
		c4.6-0.6,7.4-4.4,7.4-8.4c0-19.7,0.1-39.2,0.1-58.9c0-3.3-0.1-6.5-0.3-9.8c-0.1-1.8-1.1-3.3-2.6-4.4c-1.3-1.1-2.9-1.3-4.5-1.7
		c-1-0.2-1.3-0.6-1.2-1.7c0.1-1.6,0.1-3,0-4.6c0-0.9,0.3-1.3,1.2-1.3C27.2,21.4,38,21.4,49,21.4L49,21.4z"/>
	<path class="st0" d="M98.6,90.2c1.6-0.1,3-0.2,4.6-0.2c0.3,0,0.8,0.3,0.9,0.7c1,2.9,1.8,5.9,2.9,8.8c1,2.6,2.4,5.1,3.8,7.5
		c1.1,1.9,2.7,3.6,4.6,4.8c1.3,0.9,2.8,1.3,4.3,1.8c1.7,0.4,3-0.3,4.6-0.3c0.3,0,0.7-0.2,0.9-0.4c1.9-1.5,3.7-3.1,4.5-5.4
		c1.2-3.6,1.7-7.2-0.2-10.7c-1.6-3.1-3.6-6.1-5.9-8.6c-3.3-3.6-6.6-7.1-9.9-10.5c-3.4-3.6-7-7.1-10.1-10.7
		c-3.3-3.7-6.2-7.6-8.1-12.1c-1.6-3.7-2.4-7.6-2.1-11.7c0.2-3.5,1-6.8,2.5-10c1.8-3.8,4.7-6.8,8.2-8.9c3.9-2.4,8.2-3.8,12.8-4.3
		c3.5-0.3,6.8,0.1,10.1,0.6c2.5,0.3,4.9,1.2,7.3,2.1c2.5,1,4.9,2.2,7.3,3.6c1.7,1,3.3,2.2,4.8,3.5c0.3,0.2,0.4,0.8,0.4,1.1
		c0,6.3,0,12.5,0,18.8c0,1.1-0.3,1.5-1.3,1.5c-2,0-4.2,0-6.2,0c-1.3,0-1.7-0.2-1.8-1.6c-0.4-4.2-1.9-8-3.7-11.6
		c-1.5-3-3.3-5.7-5.7-8c-3.3-2.8-7-3.8-10.9-2.5c-2.8,0.9-4.7,3.5-5.1,6.5c-0.6,4.6,1.7,8.1,4.2,11.5c3.1,4.4,7.4,7.9,11,11.7
		c4.7,4.9,9.4,9.9,13.8,14.8c3.4,3.8,6.3,8,8,12.7c0.9,2.7,1.5,5.6,1.3,8.5c-0.1,3.7-0.6,7.3-1.8,10.8c-1.5,4-3.8,7.3-7,9.9
		c-3.5,2.9-7.5,4.9-12,5.9c-3.6,0.9-7.2,1.2-10.8,1.1c-2.2-0.1-4.4-0.6-6.6-0.8c-3.4-0.3-6.6-1.3-9.9-2.5c-1.7-0.6-3.3-1.2-4.8-1.9
		c-0.3-0.1-0.6-0.3-0.9-0.4c-1.7-0.6-1.7-0.6-1.7-2.4c-0.1-2.5-0.3-5.1-0.4-7.5c-0.2-3.7-0.3-7.5-0.4-11.1c0-0.9-0.1-1.8-0.2-2.6
		c0-1,0.3-1.3,1.3-1.3C96.3,90.3,97.4,90.3,98.6,90.2C98.6,90.1,98.6,90.2,98.6,90.2z"/>
</g>
</svg>
