<svg  xmlns="http://www.w3.org/2000/svg" xmlns:xlink="http://www.w3.org/1999/xlink" x="0px" y="0px"
	 viewBox="0 0 451 451.1" style="enable-background:new 0 0 451 451.1;" xml:space="preserve">
<style type="text/css">
	.lup{fill:#FFFFFF;}
</style>
<path class="lup" d="M167.7,0.6c6.5,0,13.1-0.6,19.5,0.1c7,0.8,13.9,2.4,20.7,4.2c7.3,1.9,14.5,4,21.6,6.7c6.7,2.6,13.2,5.7,19.4,9.2
	c15.3,8.5,29,19.2,40.9,32.1c9.3,10,17.6,20.7,23.8,32.8c4.9,9.6,9.4,19.4,13.2,29.4c2.6,7,4.5,14.5,5.4,21.9
	c1.5,11.9,3.1,23.9,2.7,35.8c-0.5,12.7-2.5,25.5-5.5,37.9c-3.5,14.7-9.5,28.8-17.4,41.8c-1.2,2-1.3,3.5,0.7,5.5
	c17.7,17.5,35.3,35.2,52.9,52.8c15.2,15.2,30.3,30.3,45.5,45.5c9.8,9.8,19.8,19.5,29.3,29.7c10.8,11.5,13.2,25.1,8.1,40
	c-4.1,11.8-12.5,19.7-24,23.3c-8.8,2.8-18.2,2.7-27.3-1.2c-5.8-2.4-10.3-6.2-14.6-10.5c-32.4-32.3-64.7-64.7-97-97.1
	c-9.1-9.1-18.3-18.2-27.4-27.4c-1.7-1.7-3.3-2-5.5-0.8c-7.5,3.9-14.9,8-22.7,11.2c-6.8,2.8-14,4.7-21.2,6.6
	c-15.7,4.3-31.8,6.5-48,5.2c-10.6-0.8-21.2-2.6-31.7-4.8c-7.8-1.6-15.6-3.8-23-6.7c-8.3-3.3-16.5-7-24-11.7
	c-8.9-5.5-17.4-12-25.5-18.6c-10.8-8.8-20.1-19.3-27.6-31.1c-5.9-9.2-11.2-18.9-16-28.8c-3-6.1-4.7-12.8-6.6-19.4
	c-1.7-5.9-3.4-11.8-4.4-17.9C0.8,189,0,181.7,0,174.4c0-10.7-0.1-21.5,1.3-32.1c1.3-9.5,4.1-18.8,7.1-27.9
	c2.7-8.2,5.9-16.3,9.8-24.1C23.7,79.3,30.8,69,38.8,59.5c12-14.4,26.1-26.4,42.1-35.9c8.3-4.9,17.3-8.8,26.3-12.5
	c7.6-3.1,15.5-5.8,23.5-7.5C142.8,1,155.1-1,167.7,0.6z M52.9,167.4c-1.1,63.7,51.9,114.6,113.2,115
	c64.2,0.4,116.3-50.4,116.3-115.4c-0.1-61.8-49.9-111.6-109.9-114.2C105,49.7,51.4,105.8,52.9,167.4z"/>
</svg>
