<svg xmlns="http://www.w3.org/2000/svg" xmlns:xlink="http://www.w3.org/1999/xlink" x="0px" y="0px"
	 viewBox="0 0 301.3 302.9" style="enable-background:new 0 0 301.3 302.9;" xml:space="preserve">
<style type="text/css">
	.penc{fill:#4ebbbb;}
</style>
<path class="penc" d="M0,302.9c0.3-3.7,0.4-6.6,0.9-9.5c0.2-1.5,1.2-2.9,1.5-4.4c2.9-12.3,5.7-24.7,8.7-37.1c2.2-9.5,5-18.8,6.8-28.4
	c2.1-10.8,8.4-18.4,16.1-25.6c9-8.4,17.6-17.4,26.4-26.1c11.4-11.3,22.9-22.5,34.2-33.8c8.6-8.6,16.9-17.4,25.5-25.9
	c10.5-10.5,21.2-20.8,31.7-31.3c9.7-9.7,19.3-19.6,29-29.4c3.4-3.4,5.5-3.2,9,0.2c8.7,8.8,17.5,17.4,26.1,26.2
	c11.8,11.8,23.4,23.8,35.3,35.6c2.8,2.8,2,4.6-0.2,6.8c-4.2,4.2-8.4,8.5-12.6,12.7c-31.8,31.7-63.5,63.4-95.3,95.1
	c-13.9,13.9-27.8,27.7-41.7,41.6c-2.4,2.3-4.7,4.7-7,7.1c-3,3.3-6.7,4.5-10.9,5.4c-8.7,1.9-17.3,4.4-25.9,6.6
	c-5,1.3-10.1,2.6-15.2,3.7c-7.3,1.7-14.6,3.1-21.9,4.9C14.2,298.8,7.8,300.7,0,302.9z"/>
<path class="penc" d="M239.7,0.1c7.4-0.5,11.8,4.5,16.2,8.8c13.5,13.1,26.4,26.7,39.8,39.8c7.5,7.3,7.6,20-0.4,27.2c-8.1,7.3-15.5,15.3-23.3,23.1
	c-0.3,0.3-0.6,0.7-1,1c-3.8,3.7-4.7,3.9-8.6,0.3c-5.5-5.2-10.8-10.7-16.1-16c-12.8-12.8-25.7-25.5-38.5-38.3
	c-2.4-2.4-4.9-4.8-7.2-7.3c-2-2.1-2-4.9,0-7c8.8-8.9,17.4-17.9,26.4-26.5C230.5,2,234.7-0.4,239.7,0.1z"/>
</svg>
