<?xml version="1.0" encoding="utf-8"?>
<!-- Generator: Adobe Illustrator 24.1.2, SVG Export Plug-In . SVG Version: 6.00 Build 0)  -->
<svg version="1.1" id="Camada_1" xmlns="http://www.w3.org/2000/svg" xmlns:xlink="http://www.w3.org/1999/xlink" x="0px" y="0px"
	 viewBox="0 0 300.3 358.2" style="enable-background:new 0 0 300.3 358.2;" xml:space="preserve">
<style type="text/css">
	.st0{fill:#FFFFFF;}
</style>
<path class="st0" d="M299.9,276.9c-0.5-18.7-5.3-36.6-14-53.2c-16.6-31.5-41.9-52.9-75.5-64.6c-7.4-2.6-7.4-2.6-1.2-8.2
	c25.9-23.5,35.1-62.4,22.4-94.8C210.5,2.5,146.4-16.8,99.4,16.4c-32,22.7-44.8,66.1-30.3,102.4c5.4,13.4,13.4,24.8,24.3,34.3
	c1,0.8,1.8,2.2,2.2,3.5c0.1,0.3-1.6,1.5-2.6,1.8c-17.2,5-32.5,13.4-46.2,24.9c-24,20.3-39.1,45.9-44.2,76.7
	c-4.8,29.2-1.4,58.8-2,88.3c-0.1,5.3,3.6,8.1,8.2,9.4c4.5,1.3,8.6-0.2,10.8-4.2c1.4-2.6,2-6,2.1-9c0.2-12,0.1-24,0.1-36
	c0-5.6,0-11.3,0.1-16.9c-0.2-15.7,1.1-31.2,6.5-46.2c14.7-41.1,55.8-70.7,99.4-71c13.8-0.1,27.7-0.6,41.5,0.1
	c10.6,0.6,21.3,1.7,31.5,4.3c43.2,11.2,76.9,54.3,77.7,98.8c0.4,22.3,0,44.7,0.2,67c0,2.8,0.3,5.8,1.5,8.2c2,4.3,7.5,6.3,11.9,5
	c5-1.4,8-5.5,8-11.4C300.2,323.2,300.6,300,299.9,276.9z"/>
</svg>
