<?xml version="1.0" encoding="utf-8"?>
<!-- Generator: Adobe Illustrator 24.1.2, SVG Export Plug-In . SVG Version: 6.00 Build 0)  -->
<svg version="1.1" id="Camada_1" xmlns="http://www.w3.org/2000/svg" xmlns:xlink="http://www.w3.org/1999/xlink" x="0px" y="0px"
	 viewBox="0 0 453.3 478.8" style="enable-background:new 0 0 453.3 478.8;" xml:space="preserve">
<style type="text/css">
	.st0{fill:#91979A;}
	.st1{fill:#FFFFFF;}
</style>
<path class="st0" d="M439.8,279.4c0-11.8,0-23.7,0-35.5c0-10.8,0-21.7,0-32.5c0-12.6,0-25.2,0-37.8c0-9.8,0-19.5,0-29.3
	c0-13.5,0-27.1,0-40.6c0-3,0.1-5.9-0.6-8.9c-0.5-2.4-1.4-4.6-2.6-6.7c-1.4-2.5-3.1-4.6-5.3-6.4c-2.4-2-5.1-3.5-7.9-4.4
	c-2.6-0.9-5.4-1.3-8.2-1.2c-3.9,0.1-7.7,0.1-11.6,0.1c-0.5,0-1.1,0-1.7-0.2h-18.3c-0.3,0.2-0.6,0.3-1.1,0.3c-0.7,0.1-1.5,0-2.2,0
	c-4.2,0-8.4,0-12.6-0.1c-0.4,0-0.9-0.1-1.4-0.2h-66.4c-0.4,0-0.8,0-1.2,0h-19.2c-0.3,0.2-0.7,0.2-1.1,0.2c-3.7,0-7.4,0-11.1,0.1
	c-1.1,0-2.2,0-3.4-0.1c-0.6,0-1.2-0.1-1.8-0.2h-51l0,0c-0.7,0-1.3,0-2,0c-3.2,0-3.2,0-3.1-3.2c0-1.8,0.1-3.5,0.1-5.3
	c0-5.2-0.1-10.5-0.1-15.7c0-2.3,0.1-4.7,0.1-7c0-5.1-0.1-10.2-0.1-15.2c0-2.8,0.1-5.7,0.1-8.5c0-0.9-0.1-1.9-0.3-2.8
	c-0.5-2.4-1.7-4.3-3.9-5.7c-1.9-1.2-3.8-1.4-5.9-1.4c-12.8,0-25.6,0-38.4,0c-10,0-19.9,0-29.9,0c-5.5,0-11,0-16.6,0
	c-5.9,0-11.7,0-17.6,0c-1.1,0-2.3,0-3.4,0.3c-2.2,0.5-4.1,1.7-5.3,3.8c-1,1.7-1.1,3.6-1.2,5.5c-0.2,4.3-0.2,8.6-0.2,12.9
	c0,2.6,0.1,5.2,0.1,7.8c0,5.2-0.1,10.5-0.1,15.7c0,4.1,0.1,8.2,0.1,12.3c0,1.9-0.1,3.9-0.2,6.1c-0.8,0.1-1.5,0.2-2.1,0.3
	C77.4,76,73.7,76,69.9,76c-3.8,0-7.5-0.1-11.3-0.1c-4.7,0-9.5,0.1-14.2,0.1c-2.6,0-5.2-0.1-7.8-0.1c-1.6,0-3.2,0.2-4.8,0.6
	c-1.6,0.4-3.2,0.9-4.7,1.5c-2.7,1.2-5,2.8-7.1,4.7c-2,1.9-3.6,4.2-4.8,6.9c-1.1,2.5-2.1,5-2.2,7.8c-0.1,2.9-0.1,5.9-0.1,8.8
	c0,4.6-0.1,9.2-0.1,13.8c0,5.5,0.1,11,0.1,16.6c0,1.9-0.1,3.7-0.1,5.6c0,5.7,0.1,11.3,0.1,17c0,1.9-0.1,3.7-0.1,5.6
	c0,5.6,0.1,11.2,0.1,16.9c0,1.9-0.1,3.8-0.1,5.7c0,5.7,0.1,11.3,0.1,17c0,1.9-0.1,3.7-0.1,5.6c0,5.6,0.1,11.1,0.1,16.7
	c0,1.8-0.1,3.6-0.1,5.4c0,5.7,0.1,11.3,0.1,17c0,1.9-0.1,3.7-0.1,5.6c0,5.6,0.1,11.2,0.1,16.9c0,1.9-0.1,3.8-0.1,5.7
	c0,5.7,0.1,11.3,0.1,17c0,1.9-0.1,3.7-0.1,5.6c0,5.5,0.1,11,0.1,16.6c0,1.9-0.1,3.7-0.1,5.6c0,4.9,0.1,9.9,0.1,14.8
	c0,3.7-0.1,7.4-0.1,11.1c0,3.6,0.2,7.2,1.4,10.6c0.8,2.2,1.8,4.3,3.1,6.2c3.7,4.9,8.6,7.9,14.6,9.4c2,0.5,4.1,0.4,6.1,0.4
	c39.5,0,79,0,118.5,0c0.4,0,0.9,0,1.3,0c0.9,0.1,1.2,0.4,1,1.2c-0.4,1.8-0.9,3.7-1.4,5.5s-1,3.6-1.5,5.5c-0.5,2-1,3.9-1.6,5.9
	c-0.2,0.8-0.7,1.7-0.7,2.5c-0.1,1.2-0.5,2.4-0.9,3.5c-0.2,0.5-0.2,0.9-0.3,1.4c-0.2,0.7-0.3,1.3-0.5,2c-0.5,2-1.1,3.9-1.5,5.9
	c-0.5,2.2-0.8,2.6-3.1,2.6c-14.9,0-29.8,0-44.7,0c-2.2,0-4.4,0.1-6.6,0.1c-2,0-3.9,1-5.8,1.4c-1.2,0.3-2.4,1.1-3.5,1.7
	c-2.2,1.1-4,2.8-5.6,4.6c-2.6,2.8-4.3,6.2-5.3,9.9c-0.2,0.6-0.3,1.2-0.4,1.9c-0.3,5.2-0.5,10.3,0,15.5c0.1,1,0.2,2,0.6,2.8
	c0.8,1.9,1.4,3.9,2.5,5.7c1.8,2.9,4,5.3,6.8,7.2c2.1,1.4,4.4,2.4,6.8,3.2c1.9,0.6,3.8,0.9,5.7,0.9c8.4,0,16.7,0,25.1,0
	c11.2,0,22.4,0,33.6,0c10.9,0,21.7,0,32.6,0c11.3,0,22.7,0,34,0c11,0,22.1,0,33.1,0c10.8,0,21.5,0,32.3,0c3.5,0,7,0,10.6,0
	c11.3,0,22.6,0,33.9,0c6.8,0,13.6,0,20.4,0c1.2,0,2.3-0.1,3.5-0.1c1.5,0,2.8-0.5,4.1-1c1.3-0.5,2.7-0.8,3.9-1.5
	c1.5-0.8,3-1.8,4.3-2.9c2.1-1.7,3.8-3.7,5.2-6c1.1-1.9,1.8-3.8,2.5-5.9c0.2-0.6,0.4-1.3,0.5-2c0.5-5.3,0.8-10.6,0-15.9
	c-0.3-1.9-0.8-3.7-1.6-5.4c-1.6-3.7-3.9-6.9-7.2-9.3c-1.4-1-2.9-1.9-4.5-2.6c-1.2-0.5-2.4-0.8-3.5-1.3c-1.7-0.6-3.5-1-5.3-1
	c-10.9,0-21.8,0-32.7,0c-6,0-11.9,0-17.9,0c-1.5,0-1.6-0.1-2-1.6c-0.3-0.8-0.4-1.7-0.6-2.5c-0.5-1.8-1.1-3.6-1.6-5.4
	c-0.5-2-0.9-4.1-1.4-6.1c-0.7-2.6-1.4-5.2-2.1-7.7c-0.4-1.4-0.8-2.9-1.1-4.4c-0.4-2-1.1-4-1.7-6c-0.6-2.2-0.6-2.3,1.8-2.3
	c16.8,0,33.6,0,50.4,0c23,0,45.9,0,68.9,0c4,0,7.8-0.8,11.4-2.5c3.2-1.6,6-3.9,8.2-6.8c1.1-1.4,2-2.9,2.6-4.5c0.5-1.3,1.3-2.6,1.6-4
	c0.6-2.7,0.8-5.5,0.8-8.3c-0.1-12.6-0.1-25-0.1-37.4C439.8,300.5,439.8,290,439.8,279.4z M33,94c0.8-0.5,1.8-0.9,2.7-1
	c1.7-0.2,3.5-0.1,5.3-0.1c4.6,0,9.3,0,13.9,0c8.7,0,17.5,0,26.2,0c0.3,0,0.7,0,1,0c1.1,0.1,1.3,0.4,1.3,1.5c0,4.7,0.1,9.4,0.1,14.1
	c0,5.5-0.1,10.9-0.1,16.4c0,2.7,0.1,5.4,0.1,8.1c0,3.3-0.5,2.7-2.8,2.8c-8,0-16,0-24,0c-1,0-2,0-2.9,0.1c-3.3,0.2-5.4,2.1-7,4.8
	c-0.1,1.6-0.8,3.1-0.4,4.9c0.5,2.3,1.7,3.9,3,5.7c2.7,3.6,5.4,7.4,8.1,11c1.4,1.9,2.9,3.9,4.4,5.8c1.7,2.2,3.3,4.4,5,6.6
	c1.4,1.8,2.8,3.6,4.1,5.5c1.6,2.1,3.1,4.3,4.7,6.5c1.4,2,2.9,3.9,4.3,5.8c1.6,2.2,3.3,4.3,4.9,6.5c2.9,3.8,5.7,7.6,8.5,11.4
	c1.6,2.2,3.2,4.4,4.8,6.6c2.2,3,4.5,6,6.7,9c3.4,4.5,6.7,9,10.1,13.5c2.8,3.8,5.7,7.6,8.5,11.4c1.9,2.6,3.7,5.2,5.6,7.7
	c2.4,3.2,4.8,6.3,7.1,9.5c1.1,1.5,2.1,3,3.6,4.2c2.4,1.8,5,2.1,7.8,1.1c2.4-0.8,3.8-2.6,5.2-4.5c0.4-0.6,0.8-1.2,1.3-1.8
	c2.2-2.9,4.3-5.9,6.5-8.8c3.4-4.5,6.8-8.9,10.1-13.4c3.1-4.2,6.3-8.5,9.4-12.7c2.5-3.4,5-6.8,7.5-10.1c1.8-2.4,3.5-4.7,5.3-7.1
	c2.7-3.7,5.4-7.3,8.1-11c2-2.8,4.2-5.5,6.2-8.2c3.3-4.5,6.6-9,9.9-13.5c2.3-3.1,4.6-6.1,6.9-9.2c3-4,5.9-7.9,8.9-11.9
	c2.7-3.6,5.2-7.3,8-10.9c1-1.3,1.7-2.6,2.3-4.1c0.7-1.8,0.3-3.4-0.3-5.1c-0.7-1.9-2-3.2-3.8-4.2c-1.4-0.9-2.9-1.1-4.5-1.1
	c-4.1-0.1-8.1-0.1-12.2-0.1c-4.9,0-9.9,0-14.8,0c-0.4,0-0.8-0.1-1.3-0.2c-0.1-0.8-0.2-1.5-0.2-2.2c-0.1-4.9-0.1-9.8-0.1-14.7
	c0-2.1,0.1-4.1,0.1-6.2c0-5.3-0.1-10.6-0.1-15.8c0-0.4,0-0.9,0-1.3c0-2.1,0.2-2.3,2.4-2.3c11.7,0,23.4,0,35,0c11,0,22,0,33,0
	c11.4,0,22.8,0,34.2,0c10.4,0,20.7,0,31.1,0c11.4,0,22.9,0,34.3,0c7.7,0,15.4,0,23.2,0c5.4,0,10.9,0,16.3,0c1.2,0,2.5,0.2,3.7,0.6
	c1.4,0.4,2.2,1.5,3,2.6c1,1.6,1.2,3.3,1.2,5.2c0,20.7,0,41.4,0,62.2c0,18.8,0,37.6,0,56.4c0,24.8,0,49.6,0,74.3c0,2.3,0,4.7,0,7
	c0,1.1-0.3,1.5-1.4,1.6c-0.3,0-0.7,0-1,0c-15.5,0-31.1,0-46.6,0c-11.6,0-23.2,0-34.8,0c-15.4,0-30.9,0-46.3,0c-15.2,0-30.3,0-45.5,0
	c-14.8,0-29.5,0-44.3,0c-15.2,0-30.3,0-45.5,0c-14.9,0-29.8,0-44.7,0c-15.2,0-30.3,0-45.5,0c-12,0-24,0-35.9,0c-0.2,0-0.5,0-0.7,0
	c-0.9-0.1-1.2-0.4-1.2-1.3c0-1.5,0-3,0-4.5c0-19.4,0-38.7,0-58.1c0-11.5,0-23,0-34.5c0-18.6,0-37.1,0-55.7c0-16.2,0-32.4,0-48.7
	C29.7,97.4,30.9,95.5,33,94z"/>
<path class="st1" d="M335.3,331.9c-1.3-0.9-2.7-1.5-4.5-1.5c-3.5,0.1-7,0-10.6,0c-3.5,0-7,0-10.6,0c-1.3,0-2.4,0.3-3.6,0.9
	c-2.9,1.5-4,4-4.5,6.9c-0.1,0.5,0.1,1,0.2,1.6c0.1,0.3,0.2,0.7,0.3,1c0.2,2.3,1.7,3.7,3.5,4.9c1.6,1.1,3.4,1.3,5.3,1.3
	c5.2,0,10.4,0,15.5,0c1.4,0,2.8,0,4.3,0c1.5-0.1,2.9-0.3,4.1-1.2c2.5-1.8,4.1-4.1,4-7.3C338.8,335.6,337.5,333.4,335.3,331.9z"/>
<path class="st1" d="M393,335.6c-0.4-1.4-1.4-2.5-2.6-3.4c-1.3-1-2.6-1.8-4.3-1.8c-3.7,0.1-7.3,0-11,0c-3.8,0-7.5,0-11.3,0
	c-0.6,0-1.2,0-1.7,0.2c-2,1-3.8,2.3-4.8,4.4c-1.3,2.9-1,6.6,1.5,9.2c1.8,1.9,4.1,2.6,6.6,2.6c4,0,7.9,0,11.9,0c2.5,0,5.1,0,7.6-0.1
	c1.8,0,3.6-0.3,5.1-1.4c2.1-1.6,3.6-3.5,3.4-6.3C393.3,338,393.3,336.7,393,335.6z"/>
</svg>
