<?xml version="1.0" encoding="utf-8"?>
<!-- Generator: Adobe Illustrator 24.1.2, SVG Export Plug-In . SVG Version: 6.00 Build 0)  -->
<svg version="1.1" id="Camada_1" xmlns="http://www.w3.org/2000/svg" xmlns:xlink="http://www.w3.org/1999/xlink" x="0px" y="0px"
	 viewBox="0 0 538.2 533.4" style="enable-background:new 0 0 538.2 533.4;" xml:space="preserve">
<style type="text/css">
	.st0{fill:#91979A;}
	.st1{fill:#FFFFFF;}
</style>
<g>
	<path class="st0" d="M103.6,133.9L103.6,133.9c3,1.9,6.3,2.8,10.1,2.8h146.7c3.5,0,6.8-0.9,9.6-2.7c5.6-3.5,8.6-9.4,8.1-16.3v-0.1
		c-0.5-6.1-3.5-11-8.6-13.8c-3.8-2.1-7.5-2.4-10-2.4c-9.5-0.1-19.2-0.1-28.5-0.1H129c-1.6,0-3.3,0-4.9,0c-3.4,0-6.8,0-10.3,0
		c-2.9,0-5.8,0.6-8.3,1.7l-0.3,0.2c-3.1,1.5-7.1,4.5-8.9,10.9l-0.2,0.8C94.4,122.5,97.4,129.8,103.6,133.9z"/>
	<path class="st0" d="M228.3,156.9H228c-2.6-0.1-5,0-7.1-0.1h-0.4c-2.7,0-5.4,0-8.2,0c-4.8,0-9.7-0.1-14.4,0c-1.9,0-3.9,0-5.8,0
		h-12.2v-0.1h-42.3c-1.1,0-2.3,0-3.4,0c-2.3,0-4.7,0-7.1,0c-5.2,0-10.5,0.1-15.2,0.2c-2.5,0-5.1,0.8-7.6,2.2l-0.6,0.3
		c-4.2,2.7-6.1,6.4-7.2,9l-0.1,0.4c-2.6,6.9,1,15.7,5.9,19.6l0.1,0.1c3.3,2.5,7.2,3.8,11.8,3.8H225c2.4,0,4.8-0.3,7-1l0.5-0.1
		l0.5-0.2c1.5-0.6,4.3-2,6.6-4.6c4.9-5.5,5.9-12.5,2.9-19.3C239.8,161,234.6,157.3,228.3,156.9z"/>
	<path class="st0" d="M222.8,216.8c-2.1-2.1-4.6-3.5-7.3-4.1c-2.2-0.5-4.5-0.7-6.5-0.7h-89.4c-0.6,0-1.1,0-1.7,0
		c-1.5,0-3.2-0.1-5.1,0.1c-2.1,0.1-4.9,0.5-7.7,1.8c-5.5,2.6-7.6,7.6-8.5,9.8l-0.2,0.5c-2.7,7.4,1,15.8,6.1,19.7l0.2,0.1
		c3.1,2.2,6.7,3.4,10.6,3.4c1.4,0,2.8,0,4.2,0c1.5,0,3,0.1,4.5,0.1h88.1c3.7,0,7.2-1,10.1-3c4.2-2.8,7-7.4,7.7-12.6
		c0.6-5.4-1.1-10.8-4.9-14.8L222.8,216.8z"/>
	<path class="st0" d="M233,271.5c-2.3-2.1-5-3.5-7.9-4.1c-2.4-0.5-4.9-0.7-7-0.7h-96.5c-0.6,0-1.2,0-1.8,0c-1.6,0-3.5-0.1-5.5,0.1
		c-2.3,0.1-5.3,0.5-8.3,1.8c-5.9,2.6-8.2,7.6-9.2,9.8l-0.2,0.5c-2.9,7.4,1.1,15.8,6.6,19.7l0.2,0.1c3.3,2.2,7.2,3.4,11.4,3.4
		c1.5,0,3,0,4.5,0c1.6,0,3.2,0.1,4.9,0.1h95.1c4,0,7.8-1,10.9-3c4.5-2.8,7.6-7.4,8.3-12.6c0.6-5.4-1.2-10.8-5.3-14.8L233,271.5z"/>
	<path class="st0" d="M276.8,326.3c-3-2.1-6.6-3.5-10.4-4.1c-3.1-0.5-6.4-0.7-9.3-0.7H129.8c-0.9,0-1.6,0-2.4,0
		c-2.1,0-4.6-0.1-7.3,0.1c-3,0.1-7,0.5-11,1.8c-7.8,2.6-10.8,7.6-12.1,9.8l-0.3,0.5c-3.8,7.4,1.4,15.8,8.7,19.7l0.3,0.1
		c4.4,2.2,9.5,3.4,15.1,3.4c2,0,4,0,6,0c2.1,0,4.3,0.1,6.4,0.1h125.5c5.3,0,10.3-1,14.4-3c6-2.8,10-7.4,11-12.6
		c0.9-5.4-1.6-10.8-7-14.8L276.8,326.3z"/>
	<path class="st0" d="M259.1,381c-2.7-2.1-5.9-3.5-9.4-4.1c-2.8-0.5-5.8-0.7-8.4-0.7H126.5c-0.8,0-1.4,0-2.2,0
		c-1.9,0-4.1-0.1-6.6,0.1c-2.7,0.1-6.3,0.5-9.9,1.8c-7.1,2.6-9.8,7.6-10.9,9.8l-0.3,0.5c-3.5,7.4,1.3,15.8,7.8,19.7l0.3,0.1
		c4,2.2,8.6,3.4,13.6,3.4c1.8,0,3.6,0,5.4,0c1.9,0,3.9,0.1,5.8,0.1h113.3c4.8,0,9.3-1,13-3c5.4-2.8,9-7.4,9.9-12.6
		c0.8-5.4-1.4-10.8-6.3-14.8L259.1,381z"/>
	<path class="st0" d="M259.1,435.7c-2.7-2.1-5.9-3.5-9.4-4.1c-2.8-0.5-5.8-0.7-8.4-0.7H126.5c-0.8,0-1.4,0-2.2,0
		c-1.9,0-4.1-0.1-6.6,0.1c-2.7,0.1-6.3,0.5-9.9,1.8c-7.1,2.6-9.8,7.6-10.9,9.8l-0.3,0.5c-3.5,7.4,1.3,15.8,7.8,19.7l0.3,0.1
		c4,2.2,8.6,3.4,13.6,3.4c1.8,0,3.6,0,5.4,0c1.9,0,3.9,0.1,5.8,0.1h113.3c4.8,0,9.3-1,13-3c5.4-2.8,9-7.4,9.9-12.6
		c0.8-5.4-1.4-10.8-6.3-14.8L259.1,435.7z"/>
	<path class="st0" d="M512.6,199.5c-0.1-0.4-0.3-1.2-0.4-1.8l-0.4-1.7c-0.8-3.5-1.7-7.5-3.2-11.5c-0.3-0.7-0.6-1.7-0.9-2.7
		c-0.4-1.3-0.8-2.8-1.4-4.3c-1.1-2.9-2.3-5.6-3.4-7.8l-0.1-0.2c-0.4-0.7-0.7-1.4-1.1-2.1c-1.5-3-3-6-4.7-9
		c-2.4-4.2-5.2-8.2-7.5-11.5c-4.1-5.8-8.8-11.3-14-16.4l-0.8-0.8c-3.5-3.4-7.2-7-11.6-10.1c-1.2-0.9-2.4-1.7-3.6-2.6
		c-2.2-1.6-4.4-3.2-6.8-4.8c-2.2-1.5-4.3-2.6-6.4-3.7c-0.9-0.5-1.8-0.9-2.6-1.4l-0.3-0.2c-2.8-1.4-5.2-2.7-7.6-3.7l-0.2-0.1
		c-2.3-1-4.5-1.8-6.6-2.6c-0.4-0.1-0.7-0.3-1.1-0.5c-0.9-0.4-2-0.8-3.2-1.2c-0.7-0.2-1.3-0.4-2-0.7c-1.8-0.6-3.6-1.3-5.6-1.8
		c-1.9-0.6-3.7-1-5.4-1.4c-0.9-0.2-1.8-0.4-2.6-0.6l-0.3-0.1l-0.8-0.1l-0.6-0.2h-0.3c-0.8-0.1-1.7-0.3-2.5-0.4
		c-0.9-0.1-1.7-0.3-2.5-0.4c-0.9-0.2-1.6-0.3-2.2-0.3c-0.1,0-0.3,0-0.4,0h-0.2c-3.9-0.7-7.8-0.9-11.2-1H388v-30
		c0-3.4-0.5-6.7-1.4-9.8c-1.4-5-4.1-9.3-8-12.7c-2.8-2.5-6.1-4.4-9.7-5.6c-4.5-1.5-8.7-1.5-12.1-1.5H352l-0.4-0.1H64.3l-0.5,0.1
		c-8.4,0.9-15.5,4.9-20.5,11.5c-2.8,3.6-4.5,7.8-5.2,12.6L37.9,57v429.4L38,487c0.9,7.7,4.6,14.1,10.8,18.6c1.2,0.9,2.7,1.8,4.4,2.9
		l2.3,1.4H309l2.9-2.9c4.3-4.3,8.5-8.4,12.9-12.7l9.6-9.6c2-2,3.9-4,5.9-6c1.9-1.9,3.8-3.8,5.7-5.7c2.2-2.2,4.3-4.3,6.5-6.4
		c2.2-2.2,4.5-4.4,6.7-6.7l10.8-10.8c1-1,2-2,3-3c3-3,5.8-5.9,8.8-8.7l0.2-0.2c3.8-3.8,5.8-8.6,5.8-13.9v-63.6
		c2.1-0.1,4.3-0.3,6.5-0.6h0.1c1.3-0.2,2.5-0.3,3.8-0.5c2.9-0.4,5.9-0.7,8.9-1.4c0.7-0.2,1.4-0.3,2.1-0.5c3.1-0.7,6.6-1.4,10.2-2.8
		h0.1c0.2-0.1,0.9-0.3,1.4-0.4c0.9-0.2,2-0.5,3.2-0.9c2.9-0.9,5.7-2.1,8.2-3.1c0.4-0.2,0.9-0.4,1.3-0.6c0.2-0.1,0.3-0.2,0.5-0.2
		l0.9-0.4c1-0.5,2-1,3-1.4c2.5-1.2,5.1-2.4,7.7-3.8c2.4-1.2,4.1-3,5.2-4.1c0.2-0.2,0.3-0.3,0.5-0.5c3.5-3.5,3.8-7.8,4-9.6l0.1-0.8
		c0.2-6.9-3.1-12.9-8.9-16.2c-5.8-3.3-10.9-2.6-14.2-1.4l-0.4,0.1c-1.9,0.8-3.5,1.7-5,2.4c-1,0.6-2,1.1-2.8,1.4l-0.6,0.3
		c-0.4,0.1-0.9,0.4-1.6,0.7c-2.5,1.1-5.1,2.3-7.7,3.3c-0.9,0.3-2.1,0.7-3.4,1l-0.3,0.1c-3.1,0.9-6.2,1.7-9.2,2.5
		c-0.7,0.2-1.5,0.3-2.4,0.4c-0.7,0.1-1.3,0.2-1.9,0.3c-6.7,1.1-14.1,1.5-23.3,1.2h-0.1c-0.2,0-0.4-0.1-0.6-0.1
		c-0.6-0.1-1.2-0.3-1.8-0.3c-0.6-0.1-1.2-0.2-1.8-0.3c-2.1-0.3-4.2-0.7-6.4-0.9c-1.5-0.1-3.2-0.6-5.1-1.1c-1.1-0.3-2.2-0.6-3.3-0.8
		c-0.6-0.1-1.3-0.4-2.1-0.7c-1-0.4-2.2-0.8-3.6-1.1c-2.9-0.9-6-2.1-9.5-3.7h-0.1c-2.1-1-4.2-2-6.4-3.2c-2.7-1.5-5.5-3.1-8.2-5.1
		c2.7-2.7,5.5-5.4,8.1-8.2l8.9-8.9c7.5-7.5,15.2-15.2,23-22.9c6.3-6.3,12.8-12.8,19.2-19.3c0.5-0.5,0.9-0.9,1.4-1.4
		c0.4-0.4,0.9-0.9,1.3-1.3c1.1,0.3,2.1,0.5,3,0.8s1.9,0.6,2.8,0.8c0.7,0.2,1.4,0.4,2.1,0.6c0.6,0.2,1.7,0.5,3.2,0.6
		c0.6,0.1,1.6,0.4,2.7,0.8c0.6,0.2,1.3,0.4,1.9,0.6l0.2,0.1c1,0.3,2,0.5,2.9,0.8c0.8,0.2,1.6,0.4,2.5,0.6c1.7,0.5,3.3,0.9,5,1.4
		c1.7,0.4,3.3,0.9,4.9,1.3c2.2,0.6,4.1,1.1,5.7,1.5c2.5,0.7,4.6,1.3,6.5,1.7c0.9,0.2,1.8,0.4,2.6,0.6c0.7,0.2,1.4,0.3,2.1,0.5
		l0.2,0.1c0.2,0.1,0.5,0.1,0.7,0.2c1.1,0.3,2.2,0.6,3.3,0.9c1,0.3,2,0.5,3.1,0.8l0.2,0.1c0.7,0.2,1.4,0.4,2.1,0.6
		c0.9,0.2,1.7,0.5,2.6,0.7c1.4,0.4,2.8,0.8,4.2,1.2c1.5,0.4,3.1,0.9,4.6,1.3l1.3,0.4c2.2,0.6,4.4,1.2,6.7,1.7l0.3,0.1
		c1.4,0.3,2.8,0.7,4.4,1.2c0.6,0.2,1.3,0.4,2,0.6c-1.2,2.6-2.6,5.2-4.2,7.7l-0.1,0.2c-1,1.6-2.1,3.3-3.3,5.1l-1.1,1.6
		c-1.2,1.9-2.7,3.8-4.3,5.8c-1.1,1.3-2.2,2.7-3.3,4.2c-4.7,6.2-4.6,13.8,0.2,20.2c0.9,1.2,1.8,2.1,2.3,2.6l0.7,0.7
		c3.5,3.1,8.2,4.6,12.9,4.2c4.8-0.4,9.1-2.8,12.2-6.6c3.1-3.7,7-8.6,10.5-13.9c2.5-3.7,4.7-7.6,6.5-10.9c1.7-3.1,3.1-6.2,4.5-9.3
		l0.1-0.2c1.4-3.4,2.6-6.7,3.7-9.9c0.2-0.6,0.4-1.1,0.6-1.7c0.8-2.2,1.6-4.4,2.2-6.9v-0.2c0.5-2.2,0.9-4.4,1.3-6.4
		c0.2-1,0.4-1.9,0.5-2.9l0.6-1.2v-48.2L512.6,199.5z M416.9,217c-1-0.3-2.1-0.6-3.1-0.9c-0.9-0.3-1.9-0.5-2.8-0.8h-0.2
		c-1.8-0.5-3.5-1-5.3-1.4c0.1-0.3,0.3-0.6,0.4-0.9l1.2-2.5c1.4-3.2,2.9-6.5,4.5-9.7l0.1-0.1c0.7-1.5,1.4-3.1,2.1-4.6s1.3-2.9,2-4.4
		l3.9-8.8c1.4-3,2.8-6,4.1-9.1c0.9-1.9,1.7-3.9,2.4-5.7c0.6-1.4,1.2-2.9,1.8-4.3c0.5-1.1,1.1-2.2,1.6-3.4c0.6-1.3,1.2-2.5,1.8-3.8
		l0.1-0.2c0.3-0.7,0.6-1.3,0.8-2c0.6-1.3,1.1-2.6,1.6-3.7l0.1-0.3c0.5-1.1,1.1-2.3,1.6-3.4c0.4-0.8,0.8-1.6,1.2-2.5
		c1.9,1.3,3.6,2.5,5.3,3.8c3.9,3.1,7.1,6,9.8,9c2.4,2.6,4.6,5,6.7,7.5c1,1.2,2,2.7,3,4.2c0.5,0.7,0.9,1.4,1.4,2c2,2.9,3.8,6,5.7,9.7
		c0.5,1,1,2,1.5,2.9s0.9,1.8,1.3,2.5c0.3,0.7,0.7,1.7,1,2.7c0.3,0.9,0.7,1.9,1.1,3c0.2,0.6,0.5,1.4,0.7,2.1c0.3,0.9,0.5,1.8,0.8,2.6
		c0.4,1.3,0.8,2.6,1.2,3.9c0.5,1.5,0.8,3.3,1.2,5.2c0.3,1.6,0.6,3.3,1,5.1c0.2,0.6,0.2,1.7,0.3,2.8c0.1,0.9,0.1,2,0.3,3.1
		c0.4,4,0.4,8.3,0.3,12.9v1.7c0,0.7-0.1,1.4-0.1,2.1c-1-0.3-2-0.5-3-0.8l-0.3-0.1c-0.8-0.2-1.7-0.4-2.7-0.8
		c-1.4-0.4-2.9-0.9-4.7-1.2l-0.4-0.1c-0.5-0.1-1.4-0.4-2.3-0.7c-1.4-0.5-3.2-1-5.2-1.3c-1.1-0.2-2.5-0.6-3.9-1
		c-1.5-0.4-3.2-0.9-5-1.3h-0.3c-0.5-0.1-1.3-0.4-2.1-0.6c-0.6-0.2-1.3-0.4-2-0.6c-2.6-0.7-4.8-1.3-6.7-1.8c-1.5-0.4-2.9-0.8-4.3-1.2
		c-1.6-0.4-3.2-0.9-4.8-1.3c-1.8-0.5-3.6-0.9-5.4-1.3c-1.4-0.3-2.7-0.6-4.1-1c-0.9-0.2-1.8-0.5-2.7-0.8
		C418.6,217.5,417.8,217.3,416.9,217z M285.8,421.2l-0.1,0.2c-1.9,3.7-2.9,8-2.9,12.6v41.9H73c0-0.4,0-0.9,0-1.3
		c0-1.8,0.1-3.5,0.1-5.3s0-3.5-0.1-5.2c0-1.7,0-3.4,0-5.1c0-1.9,0-3.8,0-5.7c0-2,0.1-3.9,0.1-5.9c0-1.7,0-3.5-0.1-5.2
		c0-1.7,0-3.4,0-5.1c0-1.8,0-3.6,0-5.4c0-1.9,0.1-3.8,0.1-5.7c0-1.7,0-3.4-0.1-5.1c0-1.6,0-3.1,0-4.7c0-1.9,0-3.7,0-5.6
		s0.1-3.9,0.1-5.8c0-1.8,0-3.5-0.1-5.2c0-1.6,0-3.3,0-4.9c0-1.8,0-3.6,0-5.4c0-1.9,0.1-3.8,0.1-5.7c0-1.8,0-3.5-0.1-5.2
		c0-1.6,0-3.3,0-4.9c0-2.1,0-4.2,0-6.4c0-2.2,0.1-4.4,0.1-6.6c0-1.7,0-3.3-0.1-4.9c0-1.5,0-3,0-4.6c0-2,0-3.9,0-5.9s0.1-4.1,0.1-6.1
		c0-1.5,0-3-0.1-4.5c0-1.4,0-2.8,0-4.2c0-2,0-4,0-6c0-2.1,0.1-4.2,0.1-6.4c0-1.6,0-3.1-0.1-4.7c0-1.4,0-2.9,0-4.3c0-2,0-4,0-6
		c0-2.1,0.1-4.1,0.1-6.2c0-1.5,0-3-0.1-4.5c0-1.4,0-2.8,0-4.2c0-2,0-4,0-6c0-2.1,0.1-4.1,0.1-6.2c0-1.6,0-3.1-0.1-4.7
		c0-1.4,0-2.9,0-4.3c0-2.1,0-4.1,0-6.2c0-2.2,0.1-4.3,0.1-6.5c0-1.5,0-3-0.1-4.5c0-1.4,0-2.8,0-4.2c0-2,0-3.9,0-5.8
		c0-2,0.1-4,0.1-6.1c0-1.7,0-3.3-0.1-4.9c0-1.5,0-3,0-4.6c0-2,0-3.9,0-5.9s0.1-4.1,0.1-6.1c0-1.5,0-2.9-0.1-4.4c0-1.3,0-2.6,0-3.9
		c0-2,0-4,0-6c0-2.1,0.1-4.2,0.1-6.4c0-1.6,0-3.1-0.1-4.7c0-1.4,0-2.9,0-4.3c0-2,0-4,0-6c0-2.1,0.1-4.1,0.1-6.2c0-1.5,0-3-0.1-4.6
		c0-1.4,0-2.8,0-4.2c0-1.9,0-3.8,0-5.7c0-2,0.1-4,0.1-6c0-1.6,0-3.2-0.1-4.8c0-1.5,0-3,0-4.5c0-2.1,0-4.1,0-6.1
		c0-2.1,0.1-4.2,0.1-6.4c0-1.5,0-2.9-0.1-4.4c0-1.4,0-2.7,0-4.1c0-2.1,0-4.1,0-6.2c0-2.2,0.1-4.3,0.1-6.5c0-1.5,0-3-0.1-4.6
		c0-1.4,0-2.8,0-4.2c0-2,0-4,0-6c0-2.1,0.1-4.2,0.1-6.4c0-1.5,0-3-0.1-4.6c0-1.4,0-2.8,0-4.2c0-2.5,0-5.1,0-7.6c0-0.5,0-1.1,0-1.6
		h279.3V94c-1.5,0.3-3,0.6-4.5,1l-1.1,0.3c-1.6,0.4-3.3,0.9-5,1.5h-0.1c-1.5,0.5-2.9,1-4.3,1.5s-2.8,1-4.3,1.5l-0.4,0.1
		c-0.7,0.3-1.4,0.5-2.2,0.8c-1.7,0.6-3.4,1.3-5.2,2.1c-4.7,2.2-9.8,4.6-14.7,7.9c-0.9,0.6-1.9,1.2-3,1.9c-1.4,0.9-2.8,1.7-4.3,2.7
		c-2.6,1.7-4.8,3.5-6.5,4.9l-0.2,0.2c-3.2,2.8-6.5,5.7-9.8,8.8c-4.8,4.6-9.1,9.5-12.8,14.6l-0.9,1.1c-2.5,3.3-5.1,6.8-7.4,10.9
		c-0.6,1-1.1,2-1.7,3c-1.6,2.8-3.2,5.7-4.8,8.9c-1.5,3-2.8,6.3-4.4,10.3c-0.7,1.8-1.2,3.5-1.6,5.1c-0.3,0.9-0.5,1.8-0.8,2.7
		l-0.2,0.6c-0.1,0.4-0.3,0.9-0.5,1.5c-0.3,0.8-0.6,1.8-0.9,2.9l-0.1,0.2c-0.2,0.7-0.3,1.4-0.5,2.1c-0.6,2.3-1.2,4.7-1.6,7.2
		c-0.8,4.6-1.4,8.7-1.8,12.5c-0.4,3.8-0.4,7.5-0.5,11.1c0,0.9,0,1.7-0.1,2.6v0.2c0,1.9,0.1,3.7,0.2,5.4c0,0.7,0.1,1.5,0.1,2.2
		c0.1,2.5,0.3,5,0.6,7.7c0.4,3.3,1,6.5,1.6,9.5c0.1,0.8,0.3,1.5,0.4,2.2c0.4,2.1,0.9,4,1.3,5.6l0.2,0.7c0.2,0.8,0.5,1.6,0.7,2.4
		c0.7,2.7,1.6,5.7,3,8.8c0.4,0.9,0.7,1.9,1.1,3c0.5,1.4,1,3,1.7,4.5c1.1,2.5,2.3,4.8,3.4,7c1.4,2.8,3,5.7,4.9,9
		c1.8,3.2,3.9,6,5.9,8.8c0.6,0.8,1.1,1.6,1.7,2.3l0.1,0.2c4.1,5.5,8.9,10.9,14.2,16c3.2,3.1,6.9,6.3,11.6,9.8
		c4.3,3.4,8.3,6.1,12,8.5h0.1c2.6,1.7,5.1,3,7.6,4.3l1.1,0.6c2.8,1.4,5.6,2.7,8.4,3.9l0.3,0.1c0.6,0.2,1.1,0.5,1.7,0.7
		c1.8,0.8,4,1.7,6.7,2.3c0.1,0,0.2,0.1,0.3,0.1c0.5,0.2,0.9,0.4,1.4,0.6l0.8,0.3c3,0.9,6,1.9,9.2,2.6c1.3,0.3,2.6,0.6,3.7,0.8v49.1
		h-41.9h-0.1C299.7,406.4,291.2,411.6,285.8,421.2z M327.4,441.6c-0.4,0.4-0.8,0.8-1.2,1.2c-2.6,2.6-5.2,5.3-7.9,8v-9.2H327.4z"/>
</g>
<path class="st1" d="M349.1,432.4c-5.6,5.6-11.2,11.1-16.7,16.7c-4.9,5-9.8,10-14.8,15c-2.8,2.8-5.6,5.7-8.4,8.5
	c-0.4,0.4-0.9,0.7-1.6,1.3c-0.1-0.9-0.2-1.4-0.2-1.9c0-4.2,0-8.5,0-12.7c0-8.2,0-16.4,0-24.6c0-0.6,0-1.2,0.1-1.8
	c0.1-1.2,0.6-1.8,1.9-1.9c0.6-0.1,1.3-0.1,1.9-0.1c12.3,0,24.6,0,36.9,0c0.4,0,0.8,0.1,1.5,0.1C349.4,431.6,349.3,432.1,349.1,432.4
	z"/>
</svg>
