<?xml version="1.0" encoding="utf-8"?>
<!-- Generator: Adobe Illustrator 24.1.2, SVG Export Plug-In . SVG Version: 6.00 Build 0)  -->
<svg version="1.1" id="Camada_1" xmlns="http://www.w3.org/2000/svg" xmlns:xlink="http://www.w3.org/1999/xlink" x="0px" y="0px"
	 viewBox="0 0 394.7 398.2" style="enable-background:new 0 0 394.7 398.2;" xml:space="preserve">
<style type="text/css">
	.st0{fill:#91979A;}
</style>
<path class="st0" d="M379.1,298.2c-9.6-24-34.3-39.4-59.6-38.2c-7.4-19.5-15-39.1-22.5-58.6c28.4-20.6,39.1-58.3,24.9-91.1
	c-8.3-19.2-23.5-33.7-42.8-41c-19.3-7.3-40.4-6.4-59.4,2.5c-35.9,16.8-52.6,58.8-38.2,95.6c0.4,1,0.8,2,1.2,2.9l-36.8,29.5
	c-8.9-5.8-18.7-9-29.3-9.5c-0.7-2.7-1.5-5.4-2.2-8.2l-2.9-10.7c-2.4-9-4.9-18-7.3-27c5.1,2.4,10.9,2.7,16.1,0.7
	c5.9-2.3,10.1-7.1,11.7-13.3c1.6-6.2-0.3-12-1.5-14.9c-8.9-20.9-17.9-42.1-26.7-62.5C98.9,43.7,94.3,33,89.8,22.3
	C84.9,10.8,76,9,71.1,8.9C67.1,8.9,57,10,51.8,22.3c-3.9,9.2-7.9,18.4-11.8,27.6c-2,4.7-4.1,9.5-6.1,14.2l-3.3,7.7
	c-6.6,15.5-13.3,31-19.9,46.5C7,127,9.1,136.1,16.2,142c6.9,5.7,16.1,6.1,24,1.1c1.9-1.2,3.8-2.5,5.6-3.7c0.8-0.5,1.6-1.1,2.4-1.6
	l10.5-7c0.1,0.4,0.2,0.8,0.3,1.2c4.5,16.5,9,32.9,13.5,49.4c1.8,6.5,3.6,13,5.4,19.6c-21,14-31.9,40.9-25.6,65.8
	c4.2,16.7,14.5,30.5,29,39c14.4,8.4,31.3,10.6,47.6,6.2c18-4.9,32.7-17.5,40.3-34.6c6.6-14.8,7.1-31.3,1.6-46.1
	c11.2-8.9,23.2-18.5,36.9-29.5c15.5,11.4,33,16.2,52,14.1c7.6,20,15.3,39.8,22.6,58.7c-19.4,16.2-27,42.1-18.9,66.8
	c5.6,17.2,18.6,30.9,35.7,37.8c7.5,3,15.3,4.5,23.1,4.5c9.9,0,19.6-2.4,28.5-7.1C379.1,361.1,391.1,328.2,379.1,298.2z M75.8,93.5
	c-3.4-2.3-6.6-2.4-10.1,0c-5.8,4-11.7,7.9-17.6,11.8c-0.7,0.5-1.5,0.9-2.2,1.3c-0.2-0.2-0.4-0.3-0.6-0.5c8.3-19.4,16.7-38.9,25-58.3
	c0.3,0,0.6,0,0.9,0c8.3,19.4,16.7,38.9,25,58.3c-0.2,0.2-0.4,0.3-0.6,0.5c-1.4-0.9-2.7-1.7-4.1-2.6C86.3,100.5,81,97,75.8,93.5z
	 M112.6,273.9L112.6,273.9c-12,0-21.7-9.7-21.8-21.6c0-5.8,2.3-11.3,6.5-15.5c4.2-4.2,9.8-6.5,15.6-6.5c0,0,0.1,0,0.1,0
	c11.4,0.1,21.4,10.3,21.4,22C134.4,264,124.4,273.9,112.6,273.9z M252.6,176.2C252.6,176.2,252.6,176.2,252.6,176.2
	c-9.8,0-18.9-3.7-25.8-10.5c-6.8-6.7-10.6-15.7-10.6-25.3c0-9.6,3.7-18.6,10.4-25.3c6.8-6.8,15.8-10.5,25.5-10.5c0,0,0,0,0,0
	c19.6,0,35.6,16.2,35.6,36.2C287.9,160,271.7,176.2,252.6,176.2z M343.7,321.9c0,12-9.9,21.8-21.9,21.8c0,0,0,0,0,0
	c-5.8,0-11.2-2.3-15.3-6.4c-4.1-4.2-6.4-9.7-6.4-15.5c0-5.7,2.3-11.1,6.5-15.2c4.2-4.2,9.7-6.4,15.5-6.4c0,0,0.1,0,0.1,0
	C334,300,343.7,309.9,343.7,321.9L343.7,321.9z"/>
</svg>
