
<svg xmlns="http://www.w3.org/2000/svg" xmlns:xlink="http://www.w3.org/1999/xlink" x="0px" y="0px"
	 viewBox="0 0 271.6 359" style="enable-background:new 0 0 271.6 359;" xml:space="preserve">
<style type="text/css">
	.tras{fill:#B0223B;}
</style>
<path class="tras" d="M136.1,72.5c36.5,0,73.1,0,109.6,0c4.2,0,8,0.8,10.3,4.5c1.2,2,1.9,4.6,1.8,6.9c-0.3,13.6-0.9,27.1-1.5,40.7
	c-0.5,11.7-0.9,23.4-1.4,35c-1.1,24.3-2.3,48.7-3.3,73c-1,22.9-1.8,45.9-2.7,68.8c-0.3,6.2-0.6,12.5-1.2,18.7
	c-1.2,12-6.8,21.8-16.2,29.3c-8.4,6.8-18.1,9.5-28.8,9.5c-44.4,0-88.9-0.1-133.3,0c-7.1,0-14-1.1-20.4-4
	c-6.6-2.9-12.2-7.5-16.5-13.3c-5.3-7-8.3-14.8-8.7-23.6c-1.1-24.8-2.4-49.6-3.5-74.5c-0.9-21.5-1.6-43.1-2.5-64.6
	c-1-23.9-2.3-47.8-3.4-71.7c-0.3-7.6-0.4-15.3-0.6-23c-0.2-7.6,3.8-11.8,11.5-11.8C62.2,72.4,99.1,72.5,136.1,72.5z M217.8,130.4
	c0.1,0,0.2,0,0.3,0c0-4.4,0-8.9,0-13.3c0-1.6-0.1-3.3-0.4-4.9c-1.1-5.2-8-8.5-12.9-6.6c-4.9,1.9-7.1,5.4-7.3,10.6
	c-0.5,12.7-1.1,25.5-1.7,38.2c-1.1,21.5-2.2,42.9-3.3,64.3c-1,20.9-1.9,41.8-2.8,62.6c-0.5,11.6-1.1,23.2-1.4,34.8
	c-0.2,5.2,4,9.4,9.2,9.8c6.6,0.6,11.3-3.9,11.7-11.4c0.8-16.3,1.5-32.6,2.3-48.8c0.5-11,1-22,1.5-33c0.5-12.4,1-24.8,1.6-37.2
	C215.6,173.8,216.7,152.1,217.8,130.4z M80.8,256.1c-0.8-16.4-2.1-39.8-3.2-63.2c-1-20.8-1.7-41.6-2.6-62.4c-0.3-6-0.6-12-1.4-17.9
	c-0.7-4.9-7.2-8.7-11.7-7.5c-5.7,1.5-8.6,5.5-8.4,11.4c0.4,11.3,0.8,22.5,1.3,33.8c1.5,30.1,3.1,60.1,4.5,90.2
	c1.1,24.2,2,48.3,3.1,72.5c0.1,2.2,0.5,4.4,1.2,6.5c1.2,3.8,4.1,5.9,7.9,6.4c4.1,0.6,7.4-0.8,10-4c1.7-2.1,2-4.6,1.9-7.2
	C82.6,297.5,81.9,280.4,80.8,256.1z M146.3,215.9c0-32.7,0-65.3,0-98c0-1.2,0.1-2.5-0.1-3.7c-0.7-4.6-3.6-7.5-7.9-8.9
	c-3.6-1.2-6.8,0.2-9.5,2.5c-2.9,2.5-3.6,5.8-3.6,9.5c0,65.4,0,130.8,0,196.2c0,1.1,0,2.1,0.1,3.2c0.4,4.2,3.7,8.1,7.6,9
	c7.3,1.7,13.3-3.1,13.3-10.7C146.3,282,146.3,248.9,146.3,215.9z"/>
<path class="tras" d="M135.7,59.3c-40.8,0-81.6,0-122.4,0c-3.3,0-6.6,0.1-9.2-2.6c-2-2-3.6-4.2-3.9-7.2c-1-9.2,5-19.2,13.2-22.8
	c3.8-1.7,7.7-2.3,11.7-2.3c22.1-0.1,44.3,0,66.4,0c1,0,2,0,3-0.1c1.6-0.2,2.5-1.1,2.5-2.8c0-2.8,0-5.6,0-8.4C97,5.2,102.1,0.1,110,0
	c17.2,0,34.4,0,51.6,0c7.8,0,12.9,5.1,13.1,12.9c0.1,2.8,0.1,5.6,0,8.4c-0.1,2,1,2.9,2.8,3c0.9,0.1,1.8,0.1,2.7,0.1
	c22.2,0,44.4,0,66.7,0c7.7,0,14.4,2.5,19.4,8.5c4.4,5.3,6.2,11.3,5,18.2c-0.7,3.9-5.1,7.7-8.9,8.1c-1.6,0.1-3.3,0.1-4.9,0.1
	C216.8,59.3,176.3,59.3,135.7,59.3z"/>
</svg>
